{
 "cells": [
  {
   "cell_type": "code",
   "execution_count": 1,
   "metadata": {},
   "outputs": [],
   "source": [
    "# you have to install mido and rtmidi before running this script\n",
    "\n",
    "import mido\n",
    "from mido import MidiFile\n",
    "\n",
    "# obtain output port\n",
    "def get_outport():\n",
    "    mido.set_backend('mido.backends.rtmidi')\n",
    "    outport = mido.open_output()\n",
    "    return outport\n",
    "\n",
    "# open a midi file given filename\n",
    "def open_midifile(fn):\n",
    "    midifile = MidiFile(fn,charset='latin-1')\n",
    "    return midifile\n",
    "\n",
    "# play a file thru midi output port\n",
    "def playfile(fn):\n",
    "    # open the file\n",
    "    midifile = open_midifile(fn)\n",
    "\n",
    "    # display something about the file\n",
    "    print(len(midifile.tracks))\n",
    "    print('type',midifile.type)\n",
    "\n",
    "    # obtain an output port\n",
    "    outport = get_outport()\n",
    "\n",
    "    import time\n",
    "    # for each message in midifile\n",
    "    for msg in midifile:\n",
    "        # if file is associated with time delay:\n",
    "        time.sleep(msg.time)\n",
    "\n",
    "        # if file is not a meta message:\n",
    "        if not msg.is_meta:\n",
    "            outport.send(msg)\n",
    "\n",
    "        # print the message. comment this line to disable printing.\n",
    "        print(str(msg).encode('utf-8'))"
   ]
  },
  {
   "cell_type": "code",
   "execution_count": 2,
   "metadata": {},
   "outputs": [
    {
     "name": "stdout",
     "output_type": "stream",
     "text": [
      "1\n",
      "type 0\n",
      "b'<meta message set_tempo tempo=512820 time=0>'\n",
      "b\"<meta message track_name name='Espana Op. 165  Capricho Catalan' time=0>\"\n",
      "b'program_change channel=0 program=0 time=0'\n",
      "b'control_change channel=0 control=7 value=100 time=0'\n",
      "b'control_change channel=0 control=91 value=127 time=0.0040064062499999996'\n",
      "b'program_change channel=0 program=0 time=0'\n",
      "b'control_change channel=0 control=7 value=100 time=0'\n",
      "b'control_change channel=0 control=64 value=127 time=0.9949242187499999'\n",
      "b'note_on channel=0 note=58 velocity=38 time=0'\n",
      "b'note_on channel=0 note=51 velocity=32 time=0'\n",
      "b'note_on channel=0 note=58 velocity=0 time=0.25774546875'\n",
      "b'note_on channel=0 note=58 velocity=35 time=0'\n",
      "b'note_on channel=0 note=58 velocity=0 time=0.5154909375'\n",
      "b'note_on channel=0 note=58 velocity=33 time=0'\n",
      "b'note_on channel=0 note=58 velocity=0 time=0.25640999999999997'\n",
      "b'note_on channel=0 note=51 velocity=0 time=0'\n",
      "b'note_on channel=0 note=58 velocity=37 time=0'\n",
      "b'note_on channel=0 note=51 velocity=32 time=0.0040064062499999996'\n",
      "b'note_on channel=0 note=58 velocity=0 time=0.25373906249999995'\n",
      "b'note_on channel=0 note=58 velocity=35 time=0'\n",
      "b'note_on channel=0 note=58 velocity=0 time=0.5154909375'\n",
      "b'note_on channel=0 note=58 velocity=34 time=0'\n",
      "b'note_on channel=0 note=75 velocity=52 time=0.25774546875'\n",
      "b'note_on channel=0 note=79 velocity=52 time=0'\n",
      "b'note_on channel=0 note=58 velocity=0 time=0'\n",
      "b'note_on channel=0 note=51 velocity=0 time=0.0040064062499999996'\n",
      "b'control_change channel=0 control=64 value=0 time=0'\n",
      "b'note_on channel=0 note=58 velocity=38 time=0'\n",
      "b'note_on channel=0 note=51 velocity=32 time=0.0040064062499999996'\n",
      "b'control_change channel=0 control=64 value=127 time=0.09748921875'\n",
      "b'note_on channel=0 note=58 velocity=0 time=0.15090796874999998'\n",
      "b'note_on channel=0 note=58 velocity=35 time=0'\n",
      "b'note_on channel=0 note=79 velocity=0 time=0.5101490624999999'\n",
      "b'note_on channel=0 note=75 velocity=0 time=0'\n",
      "b'note_on channel=0 note=77 velocity=50 time=0'\n",
      "b'note_on channel=0 note=74 velocity=50 time=0.0040064062499999996'\n",
      "b'note_on channel=0 note=58 velocity=0 time=0'\n",
      "b'note_on channel=0 note=58 velocity=33 time=0'\n",
      "b'note_on channel=0 note=74 velocity=0 time=0.25774546875'\n",
      "b'note_on channel=0 note=77 velocity=0 time=0'\n",
      "b'note_on channel=0 note=80 velocity=52 time=0'\n",
      "b'note_on channel=0 note=77 velocity=52 time=0.0040064062499999996'\n",
      "b'note_on channel=0 note=58 velocity=0 time=0'\n",
      "b'note_on channel=0 note=51 velocity=0 time=0'\n",
      "b'note_on channel=0 note=58 velocity=37 time=0.0040064062499999996'\n",
      "b'note_on channel=0 note=51 velocity=32 time=0'\n",
      "b'note_on channel=0 note=58 velocity=0 time=0.24973265624999996'\n",
      "b'note_on channel=0 note=58 velocity=35 time=0'\n",
      "b'note_on channel=0 note=77 velocity=0 time=0.25774546875'\n",
      "b'note_on channel=0 note=80 velocity=0 time=0'\n",
      "b'note_on channel=0 note=77 velocity=52 time=0'\n",
      "b'note_on channel=0 note=74 velocity=52 time=0.0040064062499999996'\n",
      "b'note_on channel=0 note=74 velocity=0 time=0.24572624999999998'\n",
      "b'note_on channel=0 note=77 velocity=0 time=0'\n",
      "b'note_on channel=0 note=75 velocity=50 time=0'\n",
      "b'note_on channel=0 note=79 velocity=50 time=0.0040064062499999996'\n",
      "b'note_on channel=0 note=58 velocity=0 time=0'\n",
      "b'note_on channel=0 note=58 velocity=34 time=0'\n",
      "b'control_change channel=0 control=64 value=0 time=0.11351484374999998'\n",
      "b'note_on channel=0 note=79 velocity=0 time=0.13221140625'\n",
      "b'note_on channel=0 note=75 velocity=0 time=0'\n",
      "b'note_on channel=0 note=72 velocity=52 time=0'\n",
      "b'note_on channel=0 note=75 velocity=52 time=0.0040064062499999996'\n",
      "b'note_on channel=0 note=58 velocity=0 time=0'\n",
      "b'note_on channel=0 note=51 velocity=0 time=0'\n",
      "b'note_on channel=0 note=58 velocity=38 time=0.0040064062499999996'\n",
      "b'note_on channel=0 note=51 velocity=32 time=0'\n",
      "b'control_change channel=0 control=64 value=127 time=0.11084390624999998'\n",
      "b'note_on channel=0 note=58 velocity=0 time=0.13488234375'\n",
      "b'note_on channel=0 note=58 velocity=35 time=0'\n",
      "b'note_on channel=0 note=75 velocity=0 time=0.25373906249999995'\n",
      "b'note_on channel=0 note=72 velocity=0 time=0'\n",
      "b'note_on channel=0 note=72 velocity=49 time=0'\n",
      "b'note_on channel=0 note=68 velocity=49 time=0.0040064062499999996'\n",
      "b'note_on channel=0 note=58 velocity=0 time=0.25640999999999997'\n",
      "b'note_on channel=0 note=58 velocity=33 time=0'\n",
      "b'note_on channel=0 note=68 velocity=0 time=0.2590809375'\n",
      "b'note_on channel=0 note=72 velocity=0 time=0'\n",
      "b'note_on channel=0 note=67 velocity=47 time=0'\n",
      "b'note_on channel=0 note=70 velocity=47 time=0.0040064062499999996'\n",
      "b'note_on channel=0 note=58 velocity=0 time=0'\n",
      "b'note_on channel=0 note=51 velocity=0 time=0'\n",
      "b'control_change channel=0 control=64 value=0 time=0.0040064062499999996'\n",
      "b'note_on channel=0 note=58 velocity=37 time=0'\n",
      "b'note_on channel=0 note=51 velocity=32 time=0'\n",
      "b'control_change channel=0 control=64 value=127 time=0.10016015625'\n",
      "b'note_on channel=0 note=58 velocity=0 time=0.1522434375'\n",
      "b'note_on channel=0 note=58 velocity=35 time=0'\n",
      "b'note_on channel=0 note=58 velocity=0 time=0.51682640625'\n",
      "b'note_on channel=0 note=58 velocity=34 time=0'\n",
      "b'control_change channel=0 control=64 value=0 time=0.12152765624999999'\n",
      "b'note_on channel=0 note=70 velocity=0 time=0.13621781249999998'\n",
      "b'note_on channel=0 note=67 velocity=0 time=0'\n",
      "b'note_on channel=0 note=72 velocity=51 time=0'\n",
      "b'note_on channel=0 note=68 velocity=51 time=0.0040064062499999996'\n",
      "b'note_on channel=0 note=58 velocity=0 time=0'\n",
      "b'note_on channel=0 note=51 velocity=0 time=0'\n",
      "b'note_on channel=0 note=65 velocity=37 time=0.0040064062499999996'\n",
      "b'note_on channel=0 note=51 velocity=32 time=0'\n",
      "b'control_change channel=0 control=64 value=127 time=0.021367499999999998'\n",
      "b'note_on channel=0 note=58 velocity=35 time=0.22035234374999998'\n",
      "b'note_on channel=0 note=72 velocity=0 time=0.24973265624999996'\n",
      "b'note_on channel=0 note=74 velocity=56 time=0'\n",
      "b'note_on channel=0 note=74 velocity=0 time=0.24439078124999997'\n",
      "b'note_on channel=0 note=77 velocity=55 time=0'\n",
      "b'note_on channel=0 note=58 velocity=0 time=0'\n",
      "b'note_on channel=0 note=58 velocity=34 time=0.0040064062499999996'\n",
      "b'note_on channel=0 note=77 velocity=0 time=0.24572624999999998'\n",
      "b'note_on channel=0 note=68 velocity=0 time=0'\n",
      "b'note_on channel=0 note=68 velocity=55 time=0'\n",
      "b'note_on channel=0 note=74 velocity=55 time=0.0040064062499999996'\n",
      "b'note_on channel=0 note=58 velocity=0 time=0'\n",
      "b'note_on channel=0 note=51 velocity=0 time=0'\n",
      "b'note_on channel=0 note=65 velocity=0 time=0.0040064062499999996'\n",
      "b'note_on channel=0 note=65 velocity=37 time=0'\n",
      "b'control_change channel=0 control=64 value=0 time=0'\n",
      "b'note_on channel=0 note=51 velocity=32 time=0.0040064062499999996'\n",
      "b'control_change channel=0 control=64 value=127 time=0.10817296874999999'\n",
      "b'note_on channel=0 note=58 velocity=35 time=0.13354687499999998'\n",
      "b'note_on channel=0 note=74 velocity=0 time=0.25507453124999996'\n",
      "b'note_on channel=0 note=70 velocity=51 time=0'\n",
      "b'note_on channel=0 note=58 velocity=0 time=0.25373906249999995'\n",
      "b'note_on channel=0 note=58 velocity=34 time=0'\n",
      "b'note_on channel=0 note=70 velocity=0 time=0.25373906249999995'\n",
      "b'note_on channel=0 note=68 velocity=0 time=0'\n",
      "b'note_on channel=0 note=67 velocity=51 time=0'\n",
      "b'note_on channel=0 note=72 velocity=51 time=0.0040064062499999996'\n",
      "b'note_on channel=0 note=58 velocity=0 time=0'\n",
      "b'note_on channel=0 note=51 velocity=0 time=0'\n",
      "b'note_on channel=0 note=65 velocity=0 time=0.0040064062499999996'\n",
      "b'note_on channel=0 note=58 velocity=37 time=0'\n",
      "b'note_on channel=0 note=51 velocity=32 time=0'\n",
      "b'control_change channel=0 control=64 value=0 time=0.10950843749999999'\n",
      "b'control_change channel=0 control=64 value=127 time=0.11618578124999998'\n",
      "b'note_on channel=0 note=72 velocity=0 time=0.01469015625'\n",
      "b'note_on channel=0 note=74 velocity=49 time=0'\n",
      "b'note_on channel=0 note=58 velocity=0 time=0'\n",
      "b'note_on channel=0 note=58 velocity=35 time=0.0040064062499999996'\n",
      "b'note_on channel=0 note=74 velocity=0 time=0.24439078124999997'\n",
      "b'note_on channel=0 note=79 velocity=52 time=0'\n",
      "b'note_on channel=0 note=79 velocity=0 time=0.24572624999999998'\n",
      "b'note_on channel=0 note=72 velocity=50 time=0'\n",
      "b'note_on channel=0 note=58 velocity=0 time=0'\n",
      "b'note_on channel=0 note=58 velocity=34 time=0.0040064062499999996'\n",
      "b'note_on channel=0 note=72 velocity=0 time=0.25507453124999996'\n",
      "b'note_on channel=0 note=67 velocity=0 time=0'\n",
      "b'note_on channel=0 note=67 velocity=47 time=0'\n",
      "b'note_on channel=0 note=70 velocity=47 time=0.0040064062499999996'\n",
      "b'note_on channel=0 note=58 velocity=0 time=0'\n",
      "b'note_on channel=0 note=51 velocity=0 time=0'\n",
      "b'control_change channel=0 control=64 value=0 time=0.0040064062499999996'\n",
      "b'note_on channel=0 note=51 velocity=32 time=0'\n",
      "b'note_on channel=0 note=58 velocity=37 time=0'\n"
     ]
    },
    {
     "name": "stdout",
     "output_type": "stream",
     "text": [
      "b'control_change channel=0 control=64 value=127 time=0.22302328124999998'\n",
      "b'note_on channel=0 note=58 velocity=0 time=0.0293803125'\n",
      "b'note_on channel=0 note=58 velocity=35 time=0'\n",
      "b'note_on channel=0 note=58 velocity=0 time=0.5194973437499999'\n",
      "b'note_on channel=0 note=58 velocity=34 time=0'\n",
      "b'control_change channel=0 control=64 value=0 time=0.05742515624999999'\n",
      "b'note_on channel=0 note=70 velocity=0 time=0.20165578124999997'\n",
      "b'note_on channel=0 note=67 velocity=0 time=0'\n",
      "b'note_on channel=0 note=74 velocity=64 time=0'\n",
      "b'note_on channel=0 note=70 velocity=64 time=0.0040064062499999996'\n",
      "b'note_on channel=0 note=58 velocity=0 time=0'\n",
      "b'note_on channel=0 note=51 velocity=0 time=0'\n",
      "b'control_change channel=0 control=64 value=0 time=0.0040064062499999996'\n",
      "b'note_on channel=0 note=62 velocity=42 time=0'\n",
      "b'note_on channel=0 note=55 velocity=35 time=0'\n",
      "b'control_change channel=0 control=64 value=127 time=0.09748921875'\n",
      "b'note_on channel=0 note=62 velocity=0 time=0.1495725'\n",
      "b'note_on channel=0 note=62 velocity=38 time=0'\n",
      "b'note_on channel=0 note=70 velocity=0 time=0.50614265625'\n",
      "b'note_on channel=0 note=74 velocity=0 time=0'\n",
      "b'note_on channel=0 note=70 velocity=55 time=0'\n",
      "b'note_on channel=0 note=67 velocity=55 time=0.0040064062499999996'\n",
      "b'note_on channel=0 note=62 velocity=0 time=0'\n",
      "b'note_on channel=0 note=62 velocity=36 time=0'\n",
      "b'control_change channel=0 control=64 value=0 time=0.17628187499999998'\n",
      "b'note_on channel=0 note=67 velocity=0 time=0.07478625'\n",
      "b'note_on channel=0 note=70 velocity=0 time=0'\n",
      "b'note_on channel=0 note=72 velocity=51 time=0'\n",
      "b'note_on channel=0 note=69 velocity=60 time=0.0040064062499999996'\n",
      "b'note_on channel=0 note=62 velocity=0 time=0'\n",
      "b'note_on channel=0 note=55 velocity=0 time=0'\n",
      "b'control_change channel=0 control=64 value=127 time=0.0040064062499999996'\n",
      "b'note_on channel=0 note=63 velocity=40 time=0'\n",
      "b'note_on channel=0 note=55 velocity=35 time=0'\n",
      "b'note_on channel=0 note=63 velocity=0 time=0.24305531249999998'\n",
      "b'note_on channel=0 note=63 velocity=38 time=0'\n",
      "b'note_on channel=0 note=72 velocity=0 time=0.251068125'\n",
      "b'note_on channel=0 note=78 velocity=65 time=0'\n",
      "b'note_on channel=0 note=78 velocity=0 time=0.24305531249999998'\n",
      "b'note_on channel=0 note=81 velocity=60 time=0'\n",
      "b'note_on channel=0 note=63 velocity=0 time=0'\n",
      "b'note_on channel=0 note=63 velocity=37 time=0.0040064062499999996'\n",
      "b'note_on channel=0 note=81 velocity=0 time=0.23904890624999997'\n",
      "b'note_on channel=0 note=69 velocity=0 time=0'\n",
      "b'note_on channel=0 note=70 velocity=57 time=0'\n",
      "b'note_on channel=0 note=79 velocity=64 time=0.0040064062499999996'\n",
      "b'note_on channel=0 note=63 velocity=0 time=0'\n",
      "b'note_on channel=0 note=55 velocity=0 time=0'\n",
      "b'note_on channel=0 note=62 velocity=43 time=0.0040064062499999996'\n",
      "b'note_on channel=0 note=55 velocity=38 time=0'\n",
      "b'control_change channel=0 control=64 value=0 time=0.10817296874999999'\n",
      "b'control_change channel=0 control=64 value=127 time=0.11485031249999998'\n",
      "b'note_on channel=0 note=79 velocity=0 time=0.01469015625'\n",
      "b'note_on channel=0 note=74 velocity=56 time=0'\n",
      "b'note_on channel=0 note=62 velocity=0 time=0'\n",
      "b'note_on channel=0 note=62 velocity=37 time=0.0040064062499999996'\n",
      "b'note_on channel=0 note=74 velocity=0 time=0.24171984374999997'\n",
      "b'note_on channel=0 note=70 velocity=0 time=0'\n",
      "b'note_on channel=0 note=72 velocity=58 time=0'\n",
      "b'note_on channel=0 note=69 velocity=51 time=0.0040064062499999996'\n",
      "b'note_on channel=0 note=62 velocity=0 time=0'\n",
      "b'note_on channel=0 note=55 velocity=0 time=0'\n",
      "b'note_on channel=0 note=55 velocity=35 time=0.0040064062499999996'\n",
      "b'note_on channel=0 note=63 velocity=39 time=0'\n",
      "b'note_on channel=0 note=72 velocity=0 time=0.23637796874999997'\n",
      "b'note_on channel=0 note=74 velocity=53 time=0'\n",
      "b'note_on channel=0 note=63 velocity=0 time=0'\n",
      "b'note_on channel=0 note=63 velocity=35 time=0.0040064062499999996'\n",
      "b'note_on channel=0 note=74 velocity=0 time=0.25240359375'\n",
      "b'note_on channel=0 note=69 velocity=0 time=0'\n",
      "b'note_on channel=0 note=67 velocity=47 time=0'\n",
      "b'note_on channel=0 note=70 velocity=47 time=0.0040064062499999996'\n",
      "b'note_on channel=0 note=63 velocity=0 time=0'\n",
      "b'note_on channel=0 note=55 velocity=0 time=0'\n",
      "b'control_change channel=0 control=64 value=0 time=0.0040064062499999996'\n",
      "b'note_on channel=0 note=55 velocity=31 time=0'\n",
      "b'note_on channel=0 note=62 velocity=36 time=0'\n",
      "b'control_change channel=0 control=64 value=127 time=0.21901687499999997'\n",
      "b'note_on channel=0 note=62 velocity=0 time=0.0293803125'\n",
      "b'note_on channel=0 note=62 velocity=34 time=0'\n",
      "b'note_on channel=0 note=62 velocity=0 time=0.5128199999999999'\n",
      "b'note_on channel=0 note=62 velocity=33 time=0'\n",
      "b'control_change channel=0 control=64 value=0 time=0.05608968749999999'\n",
      "b'note_on channel=0 note=70 velocity=0 time=0.2003203125'\n",
      "b'note_on channel=0 note=67 velocity=0 time=0'\n",
      "b'note_on channel=0 note=70 velocity=51 time=0'\n",
      "b'note_on channel=0 note=77 velocity=60 time=0.0040064062499999996'\n",
      "b'note_on channel=0 note=62 velocity=0 time=0'\n",
      "b'note_on channel=0 note=55 velocity=0 time=0'\n",
      "b'control_change channel=0 control=64 value=127 time=0.0040064062499999996'\n",
      "b'note_on channel=0 note=53 velocity=42 time=0'\n",
      "b'note_on channel=0 note=62 velocity=60 time=0'\n",
      "b'note_on channel=0 note=53 velocity=0 time=0.23904890624999997'\n",
      "b'note_on channel=0 note=53 velocity=42 time=0'\n",
      "b'note_on channel=0 note=77 velocity=0 time=0.5088135937499999'\n",
      "b'note_on channel=0 note=70 velocity=0 time=0'\n",
      "b'note_on channel=0 note=79 velocity=58 time=0'\n",
      "b'note_on channel=0 note=69 velocity=49 time=0.0040064062499999996'\n",
      "b'note_on channel=0 note=62 velocity=0 time=0'\n",
      "b'note_on channel=0 note=63 velocity=47 time=0'\n",
      "b'note_on channel=0 note=79 velocity=0 time=0.24439078124999997'\n",
      "b'note_on channel=0 note=75 velocity=57 time=0'\n",
      "b'note_on channel=0 note=63 velocity=0 time=0'\n",
      "b'control_change channel=0 control=64 value=0 time=0.0040064062499999996'\n",
      "b'note_on channel=0 note=60 velocity=48 time=0'\n",
      "b'control_change channel=0 control=64 value=127 time=0.07879265625'\n",
      "b'note_on channel=0 note=75 velocity=0 time=0.16426265624999997'\n",
      "b'note_on channel=0 note=77 velocity=60 time=0'\n",
      "b'note_on channel=0 note=60 velocity=0 time=0'\n",
      "b'note_on channel=0 note=62 velocity=49 time=0.0040064062499999996'\n",
      "b'note_on channel=0 note=77 velocity=0 time=0.24572624999999998'\n",
      "b'note_on channel=0 note=79 velocity=64 time=0'\n",
      "b'note_on channel=0 note=62 velocity=0 time=0'\n",
      "b'note_on channel=0 note=63 velocity=50 time=0.0040064062499999996'\n",
      "b'note_on channel=0 note=79 velocity=0 time=0.24706171874999996'\n",
      "b'note_on channel=0 note=81 velocity=61 time=0'\n",
      "b'note_on channel=0 note=63 velocity=0 time=0'\n",
      "b'note_on channel=0 note=65 velocity=50 time=0.0040064062499999996'\n",
      "b'note_on channel=0 note=81 velocity=0 time=0.251068125'\n",
      "b'note_on channel=0 note=69 velocity=0 time=0'\n",
      "b'note_on channel=0 note=70 velocity=58 time=0'\n",
      "b'note_on channel=0 note=77 velocity=69 time=0.0040064062499999996'\n",
      "b'note_on channel=0 note=65 velocity=0 time=0'\n",
      "b'note_on channel=0 note=53 velocity=0 time=0'\n",
      "b'control_change channel=0 control=64 value=0 time=0.0040064062499999996'\n",
      "b'note_on channel=0 note=62 velocity=56 time=0'\n",
      "b'control_change channel=0 control=64 value=127 time=0.08814093749999999'\n",
      "b'note_on channel=0 note=77 velocity=0 time=0.15624984374999998'\n",
      "b'note_on channel=0 note=70 velocity=0 time=0'\n",
      "b'note_on channel=0 note=68 velocity=48 time=0'\n",
      "b'note_on channel=0 note=74 velocity=57 time=0.0040064062499999996'\n",
      "b'note_on channel=0 note=62 velocity=0 time=0'\n",
      "b'note_on channel=0 note=59 velocity=49 time=0'\n",
      "b'control_change channel=0 control=64 value=0 time=0.22836515624999998'\n",
      "b'note_on channel=0 note=74 velocity=0 time=0.024038437499999996'\n",
      "b'note_on channel=0 note=68 velocity=0 time=0'\n",
      "b'note_on channel=0 note=75 velocity=61 time=0'\n",
      "b'note_on channel=0 note=69 velocity=52 time=0.0040064062499999996'\n",
      "b'note_on channel=0 note=59 velocity=0 time=0'\n",
      "b'note_on channel=0 note=60 velocity=52 time=0'\n",
      "b'control_change channel=0 control=64 value=127 time=0.05608968749999999'\n",
      "b'note_on channel=0 note=69 velocity=0 time=0.19364296874999998'\n",
      "b'note_on channel=0 note=75 velocity=0 time=0'\n",
      "b'note_on channel=0 note=65 velocity=46 time=0'\n",
      "b'note_on channel=0 note=73 velocity=54 time=0.0040064062499999996'\n",
      "b'note_on channel=0 note=60 velocity=0 time=0'\n",
      "b'note_on channel=0 note=57 velocity=48 time=0'\n"
     ]
    },
    {
     "name": "stdout",
     "output_type": "stream",
     "text": [
      "b'note_on channel=0 note=73 velocity=0 time=0.25373906249999995'\n",
      "b'note_on channel=0 note=74 velocity=59 time=0'\n",
      "b'note_on channel=0 note=57 velocity=0 time=0'\n",
      "b'control_change channel=0 control=64 value=0 time=0.0040064062499999996'\n",
      "b'note_on channel=0 note=58 velocity=51 time=0'\n",
      "b'control_change channel=0 control=64 value=127 time=0.033386718749999995'\n",
      "b'note_on channel=0 note=74 velocity=0 time=0.22035234374999998'\n",
      "b'note_on channel=0 note=72 velocity=52 time=0'\n",
      "b'note_on channel=0 note=68 velocity=38 time=0'\n",
      "b'note_on channel=0 note=63 velocity=39 time=0.0040064062499999996'\n",
      "b'note_on channel=0 note=72 velocity=0 time=0.2590809375'\n",
      "b'note_on channel=0 note=71 velocity=46 time=0'\n",
      "b'note_on channel=0 note=63 velocity=0 time=0'\n",
      "b'note_on channel=0 note=62 velocity=36 time=0.0040064062499999996'\n",
      "b'note_on channel=0 note=71 velocity=0 time=0.2590809375'\n",
      "b'note_on channel=0 note=68 velocity=0 time=0'\n",
      "b'note_on channel=0 note=70 velocity=43 time=0'\n",
      "b'control_change channel=0 control=64 value=0 time=0.10550203124999999'\n",
      "b'note_on channel=0 note=70 velocity=0 time=0.17093999999999998'\n",
      "b'note_on channel=0 note=65 velocity=0 time=0'\n",
      "b'note_on channel=0 note=75 velocity=52 time=0'\n",
      "b'note_on channel=0 note=79 velocity=52 time=0.0040064062499999996'\n",
      "b'note_on channel=0 note=62 velocity=0 time=0'\n",
      "b'note_on channel=0 note=58 velocity=0 time=0'\n",
      "b'control_change channel=0 control=64 value=0 time=0.0040064062499999996'\n",
      "b'note_on channel=0 note=58 velocity=38 time=0'\n",
      "b'note_on channel=0 note=51 velocity=32 time=0'\n",
      "b'control_change channel=0 control=64 value=127 time=0.09615374999999998'\n",
      "b'note_on channel=0 note=58 velocity=0 time=0.1495725'\n",
      "b'note_on channel=0 note=58 velocity=35 time=0'\n",
      "b'note_on channel=0 note=79 velocity=0 time=0.50614265625'\n",
      "b'note_on channel=0 note=75 velocity=0 time=0'\n",
      "b'note_on channel=0 note=74 velocity=50 time=0'\n",
      "b'note_on channel=0 note=77 velocity=50 time=0.0040064062499999996'\n",
      "b'note_on channel=0 note=58 velocity=0 time=0'\n",
      "b'note_on channel=0 note=58 velocity=33 time=0'\n",
      "b'note_on channel=0 note=77 velocity=0 time=0.25507453124999996'\n",
      "b'note_on channel=0 note=74 velocity=0 time=0'\n",
      "b'note_on channel=0 note=80 velocity=52 time=0'\n",
      "b'note_on channel=0 note=77 velocity=52 time=0.0040064062499999996'\n",
      "b'note_on channel=0 note=58 velocity=0 time=0'\n",
      "b'note_on channel=0 note=51 velocity=0 time=0'\n",
      "b'note_on channel=0 note=58 velocity=37 time=0.0040064062499999996'\n",
      "b'note_on channel=0 note=51 velocity=32 time=0'\n",
      "b'note_on channel=0 note=58 velocity=0 time=0.24706171874999996'\n",
      "b'note_on channel=0 note=58 velocity=35 time=0'\n",
      "b'note_on channel=0 note=77 velocity=0 time=0.25507453124999996'\n",
      "b'note_on channel=0 note=80 velocity=0 time=0'\n",
      "b'note_on channel=0 note=77 velocity=52 time=0'\n",
      "b'note_on channel=0 note=74 velocity=52 time=0.0040064062499999996'\n",
      "b'note_on channel=0 note=74 velocity=0 time=0.24572624999999998'\n",
      "b'note_on channel=0 note=77 velocity=0 time=0'\n",
      "b'note_on channel=0 note=75 velocity=50 time=0'\n",
      "b'note_on channel=0 note=79 velocity=50 time=0.0040064062499999996'\n",
      "b'note_on channel=0 note=58 velocity=0 time=0'\n",
      "b'note_on channel=0 note=58 velocity=34 time=0'\n",
      "b'control_change channel=0 control=64 value=0 time=0.11351484374999998'\n",
      "b'note_on channel=0 note=79 velocity=0 time=0.13221140625'\n",
      "b'note_on channel=0 note=75 velocity=0 time=0'\n",
      "b'note_on channel=0 note=75 velocity=52 time=0'\n",
      "b'note_on channel=0 note=72 velocity=52 time=0.0040064062499999996'\n",
      "b'note_on channel=0 note=58 velocity=0 time=0'\n",
      "b'note_on channel=0 note=51 velocity=0 time=0'\n",
      "b'note_on channel=0 note=58 velocity=38 time=0.0040064062499999996'\n",
      "b'note_on channel=0 note=51 velocity=32 time=0'\n",
      "b'control_change channel=0 control=64 value=127 time=0.11217937499999998'\n",
      "b'note_on channel=0 note=58 velocity=0 time=0.13354687499999998'\n",
      "b'note_on channel=0 note=58 velocity=35 time=0'\n",
      "b'note_on channel=0 note=72 velocity=0 time=0.25507453124999996'\n",
      "b'note_on channel=0 note=75 velocity=0 time=0'\n",
      "b'note_on channel=0 note=68 velocity=49 time=0'\n",
      "b'note_on channel=0 note=72 velocity=49 time=0.0040064062499999996'\n",
      "b'note_on channel=0 note=58 velocity=0 time=0.25507453124999996'\n",
      "b'note_on channel=0 note=58 velocity=33 time=0'\n",
      "b'note_on channel=0 note=72 velocity=0 time=0.26041640624999995'\n",
      "b'note_on channel=0 note=68 velocity=0 time=0'\n",
      "b'note_on channel=0 note=67 velocity=47 time=0'\n",
      "b'note_on channel=0 note=70 velocity=47 time=0.0040064062499999996'\n",
      "b'note_on channel=0 note=58 velocity=0 time=0'\n",
      "b'note_on channel=0 note=51 velocity=0 time=0'\n",
      "b'control_change channel=0 control=64 value=0 time=0.0040064062499999996'\n",
      "b'note_on channel=0 note=58 velocity=37 time=0'\n",
      "b'note_on channel=0 note=51 velocity=32 time=0'\n",
      "b'control_change channel=0 control=64 value=127 time=0.0988246875'\n",
      "b'note_on channel=0 note=58 velocity=0 time=0.1522434375'\n",
      "b'note_on channel=0 note=58 velocity=35 time=0'\n",
      "b'note_on channel=0 note=58 velocity=0 time=0.51682640625'\n",
      "b'note_on channel=0 note=58 velocity=34 time=0'\n",
      "b'control_change channel=0 control=64 value=0 time=0.12152765624999999'\n",
      "b'note_on channel=0 note=70 velocity=0 time=0.13621781249999998'\n",
      "b'note_on channel=0 note=67 velocity=0 time=0'\n",
      "b'note_on channel=0 note=72 velocity=51 time=0'\n",
      "b'note_on channel=0 note=68 velocity=51 time=0.0040064062499999996'\n",
      "b'note_on channel=0 note=58 velocity=0 time=0'\n",
      "b'note_on channel=0 note=51 velocity=0 time=0'\n",
      "b'note_on channel=0 note=65 velocity=37 time=0.0040064062499999996'\n",
      "b'note_on channel=0 note=51 velocity=32 time=0'\n",
      "b'control_change channel=0 control=64 value=127 time=0.021367499999999998'\n",
      "b'note_on channel=0 note=58 velocity=35 time=0.22035234374999998'\n",
      "b'note_on channel=0 note=72 velocity=0 time=0.24973265624999996'\n",
      "b'note_on channel=0 note=74 velocity=56 time=0'\n",
      "b'note_on channel=0 note=74 velocity=0 time=0.24439078124999997'\n",
      "b'note_on channel=0 note=77 velocity=55 time=0'\n",
      "b'note_on channel=0 note=58 velocity=0 time=0'\n",
      "b'note_on channel=0 note=58 velocity=34 time=0.0040064062499999996'\n",
      "b'note_on channel=0 note=77 velocity=0 time=0.24572624999999998'\n",
      "b'note_on channel=0 note=68 velocity=0 time=0'\n",
      "b'note_on channel=0 note=68 velocity=55 time=0'\n",
      "b'note_on channel=0 note=74 velocity=55 time=0.0040064062499999996'\n",
      "b'note_on channel=0 note=58 velocity=0 time=0'\n",
      "b'note_on channel=0 note=51 velocity=0 time=0'\n",
      "b'note_on channel=0 note=65 velocity=0 time=0.0040064062499999996'\n",
      "b'note_on channel=0 note=65 velocity=37 time=0'\n",
      "b'control_change channel=0 control=64 value=0 time=0'\n",
      "b'note_on channel=0 note=51 velocity=32 time=0.0040064062499999996'\n",
      "b'control_change channel=0 control=64 value=127 time=0.10817296874999999'\n",
      "b'note_on channel=0 note=58 velocity=35 time=0.13488234375'\n",
      "b'note_on channel=0 note=74 velocity=0 time=0.25373906249999995'\n",
      "b'note_on channel=0 note=70 velocity=51 time=0'\n",
      "b'note_on channel=0 note=58 velocity=0 time=0.25373906249999995'\n",
      "b'note_on channel=0 note=58 velocity=34 time=0'\n",
      "b'note_on channel=0 note=70 velocity=0 time=0.25373906249999995'\n",
      "b'note_on channel=0 note=68 velocity=0 time=0'\n",
      "b'note_on channel=0 note=72 velocity=51 time=0'\n",
      "b'note_on channel=0 note=67 velocity=51 time=0.0040064062499999996'\n",
      "b'note_on channel=0 note=58 velocity=0 time=0'\n",
      "b'note_on channel=0 note=51 velocity=0 time=0'\n",
      "b'note_on channel=0 note=65 velocity=0 time=0.0040064062499999996'\n",
      "b'note_on channel=0 note=58 velocity=37 time=0'\n",
      "b'note_on channel=0 note=51 velocity=32 time=0'\n",
      "b'control_change channel=0 control=64 value=0 time=0.10950843749999999'\n",
      "b'control_change channel=0 control=64 value=127 time=0.11752125'\n",
      "b'note_on channel=0 note=72 velocity=0 time=0.01469015625'\n",
      "b'note_on channel=0 note=74 velocity=49 time=0'\n",
      "b'note_on channel=0 note=58 velocity=0 time=0'\n",
      "b'note_on channel=0 note=58 velocity=35 time=0.0040064062499999996'\n",
      "b'note_on channel=0 note=74 velocity=0 time=0.24439078124999997'\n",
      "b'note_on channel=0 note=79 velocity=52 time=0'\n",
      "b'note_on channel=0 note=79 velocity=0 time=0.24439078124999997'\n",
      "b'note_on channel=0 note=72 velocity=50 time=0'\n",
      "b'note_on channel=0 note=58 velocity=0 time=0'\n",
      "b'note_on channel=0 note=58 velocity=34 time=0.0040064062499999996'\n",
      "b'note_on channel=0 note=72 velocity=0 time=0.25507453124999996'\n",
      "b'note_on channel=0 note=67 velocity=0 time=0'\n",
      "b'note_on channel=0 note=70 velocity=47 time=0'\n",
      "b'note_on channel=0 note=67 velocity=47 time=0.0040064062499999996'\n",
      "b'note_on channel=0 note=58 velocity=0 time=0'\n",
      "b'note_on channel=0 note=51 velocity=0 time=0'\n",
      "b'control_change channel=0 control=64 value=0 time=0.0040064062499999996'\n",
      "b'note_on channel=0 note=51 velocity=32 time=0'\n",
      "b'note_on channel=0 note=58 velocity=37 time=0'\n"
     ]
    },
    {
     "name": "stdout",
     "output_type": "stream",
     "text": [
      "b'control_change channel=0 control=64 value=127 time=0.22302328124999998'\n",
      "b'note_on channel=0 note=58 velocity=0 time=0.0293803125'\n",
      "b'note_on channel=0 note=58 velocity=35 time=0'\n",
      "b'note_on channel=0 note=58 velocity=0 time=0.5194973437499999'\n",
      "b'note_on channel=0 note=58 velocity=34 time=0'\n",
      "b'control_change channel=0 control=64 value=0 time=0.05742515624999999'\n",
      "b'note_on channel=0 note=67 velocity=0 time=0.20165578124999997'\n",
      "b'note_on channel=0 note=70 velocity=0 time=0'\n",
      "b'note_on channel=0 note=74 velocity=64 time=0'\n",
      "b'note_on channel=0 note=70 velocity=64 time=0.0040064062499999996'\n",
      "b'note_on channel=0 note=58 velocity=0 time=0'\n",
      "b'note_on channel=0 note=51 velocity=0 time=0'\n",
      "b'control_change channel=0 control=64 value=0 time=0.0040064062499999996'\n",
      "b'note_on channel=0 note=62 velocity=42 time=0'\n",
      "b'note_on channel=0 note=55 velocity=35 time=0'\n",
      "b'control_change channel=0 control=64 value=127 time=0.09748921875'\n",
      "b'note_on channel=0 note=62 velocity=0 time=0.15090796874999998'\n",
      "b'note_on channel=0 note=62 velocity=38 time=0'\n",
      "b'note_on channel=0 note=70 velocity=0 time=0.49812984374999997'\n",
      "b'note_on channel=0 note=74 velocity=0 time=0'\n",
      "b'note_on channel=0 note=70 velocity=55 time=0'\n",
      "b'note_on channel=0 note=67 velocity=55 time=0.0040064062499999996'\n",
      "b'note_on channel=0 note=62 velocity=0 time=0'\n",
      "b'note_on channel=0 note=62 velocity=36 time=0'\n",
      "b'control_change channel=0 control=64 value=0 time=0.17227546875'\n",
      "b'note_on channel=0 note=67 velocity=0 time=0.07478625'\n",
      "b'note_on channel=0 note=70 velocity=0 time=0'\n",
      "b'note_on channel=0 note=72 velocity=51 time=0'\n",
      "b'note_on channel=0 note=69 velocity=60 time=0.0040064062499999996'\n",
      "b'note_on channel=0 note=62 velocity=0 time=0'\n",
      "b'note_on channel=0 note=55 velocity=0 time=0'\n",
      "b'control_change channel=0 control=64 value=127 time=0.0040064062499999996'\n",
      "b'note_on channel=0 note=63 velocity=40 time=0'\n",
      "b'note_on channel=0 note=55 velocity=35 time=0'\n",
      "b'note_on channel=0 note=63 velocity=0 time=0.24171984374999997'\n",
      "b'note_on channel=0 note=63 velocity=38 time=0'\n",
      "b'note_on channel=0 note=72 velocity=0 time=0.251068125'\n",
      "b'note_on channel=0 note=78 velocity=65 time=0'\n",
      "b'note_on channel=0 note=78 velocity=0 time=0.24439078124999997'\n",
      "b'note_on channel=0 note=81 velocity=60 time=0'\n",
      "b'note_on channel=0 note=63 velocity=0 time=0'\n",
      "b'note_on channel=0 note=63 velocity=37 time=0.0040064062499999996'\n",
      "b'note_on channel=0 note=81 velocity=0 time=0.23904890624999997'\n",
      "b'note_on channel=0 note=69 velocity=0 time=0'\n",
      "b'note_on channel=0 note=79 velocity=64 time=0'\n",
      "b'note_on channel=0 note=70 velocity=57 time=0.0040064062499999996'\n",
      "b'note_on channel=0 note=63 velocity=0 time=0'\n",
      "b'note_on channel=0 note=55 velocity=0 time=0'\n",
      "b'note_on channel=0 note=62 velocity=43 time=0.0040064062499999996'\n",
      "b'note_on channel=0 note=55 velocity=38 time=0'\n",
      "b'control_change channel=0 control=64 value=0 time=0.10683749999999999'\n",
      "b'control_change channel=0 control=64 value=127 time=0.11618578124999998'\n",
      "b'note_on channel=0 note=79 velocity=0 time=0.01469015625'\n",
      "b'note_on channel=0 note=74 velocity=56 time=0'\n",
      "b'note_on channel=0 note=62 velocity=0 time=0'\n",
      "b'note_on channel=0 note=62 velocity=37 time=0.0040064062499999996'\n",
      "b'note_on channel=0 note=74 velocity=0 time=0.24038437499999998'\n",
      "b'note_on channel=0 note=70 velocity=0 time=0'\n",
      "b'note_on channel=0 note=69 velocity=51 time=0'\n",
      "b'note_on channel=0 note=72 velocity=58 time=0.0040064062499999996'\n",
      "b'note_on channel=0 note=62 velocity=0 time=0'\n",
      "b'note_on channel=0 note=55 velocity=0 time=0'\n",
      "b'note_on channel=0 note=55 velocity=35 time=0.0040064062499999996'\n",
      "b'note_on channel=0 note=63 velocity=39 time=0'\n",
      "b'note_on channel=0 note=72 velocity=0 time=0.23637796874999997'\n",
      "b'note_on channel=0 note=74 velocity=53 time=0'\n",
      "b'note_on channel=0 note=63 velocity=0 time=0'\n",
      "b'note_on channel=0 note=63 velocity=35 time=0.0040064062499999996'\n",
      "b'note_on channel=0 note=74 velocity=0 time=0.25240359375'\n",
      "b'note_on channel=0 note=69 velocity=0 time=0'\n",
      "b'note_on channel=0 note=67 velocity=47 time=0'\n",
      "b'note_on channel=0 note=70 velocity=47 time=0.0040064062499999996'\n",
      "b'note_on channel=0 note=63 velocity=0 time=0'\n",
      "b'note_on channel=0 note=55 velocity=0 time=0'\n",
      "b'control_change channel=0 control=64 value=0 time=0.0040064062499999996'\n",
      "b'note_on channel=0 note=55 velocity=31 time=0'\n",
      "b'note_on channel=0 note=62 velocity=36 time=0'\n",
      "b'control_change channel=0 control=64 value=127 time=0.22035234374999998'\n",
      "b'note_on channel=0 note=62 velocity=0 time=0.028044843749999996'\n",
      "b'note_on channel=0 note=62 velocity=34 time=0'\n",
      "b'note_on channel=0 note=62 velocity=0 time=0.5128199999999999'\n",
      "b'note_on channel=0 note=62 velocity=33 time=0'\n",
      "b'control_change channel=0 control=64 value=0 time=0.05742515624999999'\n",
      "b'note_on channel=0 note=70 velocity=0 time=0.19898484374999997'\n",
      "b'note_on channel=0 note=67 velocity=0 time=0'\n",
      "b'note_on channel=0 note=65 velocity=52 time=0'\n",
      "b'note_on channel=0 note=70 velocity=58 time=0.0040064062499999996'\n",
      "b'note_on channel=0 note=62 velocity=0 time=0'\n",
      "b'note_on channel=0 note=55 velocity=0 time=0'\n",
      "b'control_change channel=0 control=64 value=0 time=0.0040064062499999996'\n",
      "b'note_on channel=0 note=53 velocity=34 time=0'\n",
      "b'note_on channel=0 note=62 velocity=39 time=0'\n",
      "b'control_change channel=0 control=64 value=127 time=0.21768140625'\n",
      "b'note_on channel=0 note=62 velocity=0 time=0.028044843749999996'\n",
      "b'note_on channel=0 note=62 velocity=37 time=0'\n",
      "b'control_change channel=0 control=64 value=0 time=0.18963656249999997'\n",
      "b'note_on channel=0 note=70 velocity=0 time=0.060096093749999996'\n",
      "b'note_on channel=0 note=65 velocity=0 time=0'\n",
      "b'note_on channel=0 note=72 velocity=57 time=0'\n",
      "b'note_on channel=0 note=66 velocity=51 time=0.0040064062499999996'\n",
      "b'note_on channel=0 note=62 velocity=0 time=0'\n",
      "b'note_on channel=0 note=53 velocity=0 time=0'\n",
      "b'note_on channel=0 note=63 velocity=49 time=0.0040064062499999996'\n",
      "b'control_change channel=0 control=64 value=127 time=0.06276703125'\n",
      "b'note_on channel=0 note=66 velocity=0 time=0.17361093749999998'\n",
      "b'note_on channel=0 note=72 velocity=0 time=0'\n",
      "b'note_on channel=0 note=70 velocity=55 time=0'\n",
      "b'note_on channel=0 note=75 velocity=55 time=0.0040064062499999996'\n",
      "b'note_on channel=0 note=63 velocity=0 time=0'\n",
      "b'note_on channel=0 note=66 velocity=43 time=0'\n",
      "b'note_on channel=0 note=75 velocity=0 time=0.24171984374999997'\n",
      "b'note_on channel=0 note=70 velocity=0 time=0'\n",
      "b'note_on channel=0 note=72 velocity=60 time=0'\n",
      "b'note_on channel=0 note=66 velocity=54 time=0.0040064062499999996'\n",
      "b'note_on channel=0 note=66 velocity=0 time=0'\n",
      "b'note_on channel=0 note=63 velocity=49 time=0'\n",
      "b'note_on channel=0 note=66 velocity=0 time=0.23904890624999997'\n",
      "b'note_on channel=0 note=72 velocity=0 time=0'\n",
      "b'note_on channel=0 note=70 velocity=47 time=0'\n",
      "b'note_on channel=0 note=75 velocity=53 time=0.0040064062499999996'\n",
      "b'note_on channel=0 note=63 velocity=0 time=0'\n",
      "b'note_on channel=0 note=66 velocity=44 time=0'\n",
      "b'note_on channel=0 note=75 velocity=0 time=0.24171984374999997'\n",
      "b'note_on channel=0 note=70 velocity=0 time=0'\n",
      "b'note_on channel=0 note=78 velocity=60 time=0'\n",
      "b'note_on channel=0 note=72 velocity=54 time=0.0040064062499999996'\n",
      "b'note_on channel=0 note=66 velocity=0 time=0'\n",
      "b'note_on channel=0 note=70 velocity=51 time=0'\n",
      "b'note_on channel=0 note=72 velocity=0 time=0.24038437499999998'\n",
      "b'note_on channel=0 note=78 velocity=0 time=0'\n",
      "b'note_on channel=0 note=75 velocity=54 time=0'\n",
      "b'note_on channel=0 note=70 velocity=48 time=0.0040064062499999996'\n",
      "b'note_on channel=0 note=70 velocity=0 time=0'\n",
      "b'note_on channel=0 note=66 velocity=47 time=0'\n",
      "b'control_change channel=0 control=64 value=0 time=0.14022421875'\n",
      "b'note_on channel=0 note=70 velocity=0 time=0.10950843749999999'\n",
      "b'note_on channel=0 note=75 velocity=0 time=0'\n",
      "b'note_on channel=0 note=69 velocity=54 time=0'\n",
      "b'note_on channel=0 note=74 velocity=54 time=0.0040064062499999996'\n",
      "b'note_on channel=0 note=66 velocity=0 time=0'\n",
      "b'control_change channel=0 control=64 value=127 time=0'\n",
      "b'note_on channel=0 note=53 velocity=43 time=0.0040064062499999996'\n",
      "b'note_on channel=0 note=65 velocity=43 time=0'\n",
      "b'note_on channel=0 note=65 velocity=0 time=0.24572624999999998'\n",
      "b'note_on channel=0 note=65 velocity=39 time=0'\n",
      "b'note_on channel=0 note=74 velocity=0 time=0.2590809375'\n",
      "b'note_on channel=0 note=72 velocity=53 time=0'\n",
      "b'note_on channel=0 note=65 velocity=0 time=0'\n",
      "b'note_on channel=0 note=63 velocity=42 time=0.0040064062499999996'\n"
     ]
    },
    {
     "name": "stdout",
     "output_type": "stream",
     "text": [
      "b'note_on channel=0 note=72 velocity=0 time=0.25507453124999996'\n",
      "b'note_on channel=0 note=74 velocity=49 time=0'\n",
      "b'note_on channel=0 note=63 velocity=0 time=0'\n",
      "b'note_on channel=0 note=63 velocity=37 time=0.0040064062499999996'\n",
      "b'control_change channel=0 control=64 value=0 time=0.08680546874999999'\n",
      "b'note_on channel=0 note=74 velocity=0 time=0.16693359374999997'\n",
      "b'note_on channel=0 note=69 velocity=0 time=0'\n",
      "b'note_on channel=0 note=70 velocity=47 time=0'\n",
      "b'note_on channel=0 note=65 velocity=47 time=0.0040064062499999996'\n",
      "b'note_on channel=0 note=63 velocity=0 time=0'\n",
      "b'note_on channel=0 note=53 velocity=0 time=0'\n",
      "b'note_on channel=0 note=62 velocity=42 time=0.0040064062499999996'\n",
      "b'note_on channel=0 note=58 velocity=42 time=0'\n",
      "b'control_change channel=0 control=64 value=127 time=0.0293803125'\n",
      "b'note_on channel=0 note=58 velocity=0 time=0.21634593749999997'\n",
      "b'note_on channel=0 note=62 velocity=0 time=0'\n",
      "b'note_on channel=0 note=59 velocity=36 time=0'\n",
      "b'control_change channel=0 control=64 value=0 time=0.15892078124999998'\n",
      "b'note_on channel=0 note=59 velocity=0 time=0.03872859375'\n",
      "b'note_on channel=0 note=62 velocity=32 time=0'\n",
      "b'note_on channel=0 note=60 velocity=38 time=0.06677343749999999'\n",
      "b'control_change channel=0 control=64 value=127 time=0.02003203125'\n",
      "b'note_on channel=0 note=62 velocity=0 time=0'\n",
      "b'note_on channel=0 note=60 velocity=0 time=0.24572624999999998'\n",
      "b'note_on channel=0 note=58 velocity=35 time=0'\n",
      "b'control_change channel=0 control=64 value=0 time=0.17895281249999997'\n",
      "b'note_on channel=0 note=65 velocity=0 time=0.08680546874999999'\n",
      "b'note_on channel=0 note=70 velocity=0 time=0'\n",
      "b'note_on channel=0 note=77 velocity=52 time=0'\n",
      "b'note_on channel=0 note=74 velocity=52 time=0.0040064062499999996'\n",
      "b'note_on channel=0 note=58 velocity=0 time=0'\n",
      "b'control_change channel=0 control=64 value=0 time=0'\n",
      "b'note_on channel=0 note=34 velocity=38 time=0.0040064062499999996'\n",
      "b'control_change channel=0 control=64 value=127 time=0.09748921875'\n",
      "b'note_on channel=0 note=34 velocity=0 time=0.15090796874999998'\n",
      "b'note_on channel=0 note=58 velocity=35 time=0'\n",
      "b'note_on channel=0 note=74 velocity=0 time=0.49679437499999995'\n",
      "b'note_on channel=0 note=77 velocity=0 time=0'\n",
      "b'note_on channel=0 note=72 velocity=50 time=0'\n",
      "b'note_on channel=0 note=68 velocity=50 time=0.0040064062499999996'\n",
      "b'note_on channel=0 note=58 velocity=0 time=0'\n",
      "b'note_on channel=0 note=58 velocity=33 time=0'\n",
      "b'note_on channel=0 note=68 velocity=0 time=0.24706171874999996'\n",
      "b'note_on channel=0 note=72 velocity=0 time=0'\n",
      "b'note_on channel=0 note=75 velocity=52 time=0'\n",
      "b'note_on channel=0 note=72 velocity=52 time=0.0040064062499999996'\n",
      "b'note_on channel=0 note=58 velocity=0 time=0'\n",
      "b'note_on channel=0 note=58 velocity=37 time=0'\n",
      "b'note_on channel=0 note=58 velocity=0 time=0.24973265624999996'\n",
      "b'note_on channel=0 note=58 velocity=35 time=0'\n",
      "b'note_on channel=0 note=72 velocity=0 time=0.25373906249999995'\n",
      "b'note_on channel=0 note=75 velocity=0 time=0'\n",
      "b'note_on channel=0 note=70 velocity=52 time=0'\n",
      "b'note_on channel=0 note=74 velocity=52 time=0.0040064062499999996'\n",
      "b'note_on channel=0 note=74 velocity=0 time=0.24572624999999998'\n",
      "b'note_on channel=0 note=70 velocity=0 time=0'\n",
      "b'note_on channel=0 note=70 velocity=50 time=0'\n",
      "b'note_on channel=0 note=67 velocity=50 time=0.0040064062499999996'\n",
      "b'note_on channel=0 note=58 velocity=0 time=0'\n",
      "b'note_on channel=0 note=58 velocity=34 time=0'\n",
      "b'control_change channel=0 control=64 value=0 time=0.11485031249999998'\n",
      "b'note_on channel=0 note=67 velocity=0 time=0.13087593749999998'\n",
      "b'note_on channel=0 note=70 velocity=0 time=0'\n",
      "b'note_on channel=0 note=70 velocity=52 time=0'\n",
      "b'note_on channel=0 note=74 velocity=52 time=0.0040064062499999996'\n",
      "b'note_on channel=0 note=58 velocity=0 time=0'\n",
      "b'note_on channel=0 note=58 velocity=38 time=0'\n",
      "b'control_change channel=0 control=64 value=127 time=0.11618578124999998'\n",
      "b'note_on channel=0 note=58 velocity=0 time=0.13488234375'\n",
      "b'note_on channel=0 note=58 velocity=35 time=0'\n",
      "b'note_on channel=0 note=74 velocity=0 time=0.25373906249999995'\n",
      "b'note_on channel=0 note=70 velocity=0 time=0'\n",
      "b'note_on channel=0 note=72 velocity=49 time=0'\n",
      "b'note_on channel=0 note=68 velocity=49 time=0.0040064062499999996'\n",
      "b'note_on channel=0 note=58 velocity=0 time=0.25640999999999997'\n",
      "b'note_on channel=0 note=58 velocity=33 time=0'\n",
      "b'note_on channel=0 note=68 velocity=0 time=0.2590809375'\n",
      "b'note_on channel=0 note=72 velocity=0 time=0'\n",
      "b'note_on channel=0 note=65 velocity=47 time=0'\n",
      "b'note_on channel=0 note=68 velocity=47 time=0.0040064062499999996'\n",
      "b'note_on channel=0 note=58 velocity=0 time=0'\n",
      "b'control_change channel=0 control=64 value=0 time=0'\n",
      "b'note_on channel=0 note=58 velocity=37 time=0.0040064062499999996'\n",
      "b'control_change channel=0 control=64 value=127 time=0.0988246875'\n",
      "b'note_on channel=0 note=58 velocity=0 time=0.15357890624999998'\n",
      "b'note_on channel=0 note=58 velocity=35 time=0'\n",
      "b'note_on channel=0 note=58 velocity=0 time=0.51682640625'\n",
      "b'note_on channel=0 note=58 velocity=34 time=0'\n",
      "b'control_change channel=0 control=64 value=0 time=0.12152765624999999'\n",
      "b'note_on channel=0 note=68 velocity=0 time=0.13621781249999998'\n",
      "b'note_on channel=0 note=65 velocity=0 time=0'\n",
      "b'note_on channel=0 note=80 velocity=72 time=0'\n",
      "b'note_on channel=0 note=77 velocity=72 time=0.0040064062499999996'\n",
      "b'note_on channel=0 note=58 velocity=0 time=0'\n",
      "b'control_change channel=0 control=64 value=0 time=0'\n",
      "b'note_on channel=0 note=34 velocity=54 time=0.0040064062499999996'\n",
      "b'control_change channel=0 control=64 value=127 time=0.09748921875'\n",
      "b'note_on channel=0 note=34 velocity=0 time=0.1522434375'\n",
      "b'note_on channel=0 note=58 velocity=47 time=0'\n",
      "b'note_on channel=0 note=77 velocity=0 time=0.49412343749999993'\n",
      "b'note_on channel=0 note=80 velocity=0 time=0'\n",
      "b'note_on channel=0 note=79 velocity=57 time=0'\n",
      "b'note_on channel=0 note=76 velocity=57 time=0.0040064062499999996'\n",
      "b'note_on channel=0 note=58 velocity=0 time=0'\n",
      "b'note_on channel=0 note=58 velocity=38 time=0'\n",
      "b'note_on channel=0 note=76 velocity=0 time=0.24171984374999997'\n",
      "b'note_on channel=0 note=79 velocity=0 time=0'\n",
      "b'note_on channel=0 note=76 velocity=63 time=0'\n",
      "b'note_on channel=0 note=73 velocity=63 time=0.0040064062499999996'\n",
      "b'note_on channel=0 note=58 velocity=0 time=0'\n",
      "b'note_on channel=0 note=58 velocity=39 time=0'\n",
      "b'note_on channel=0 note=73 velocity=0 time=0.24171984374999997'\n",
      "b'note_on channel=0 note=76 velocity=0 time=0'\n",
      "b'note_on channel=0 note=79 velocity=56 time=0'\n",
      "b'note_on channel=0 note=76 velocity=56 time=0.0040064062499999996'\n",
      "b'note_on channel=0 note=58 velocity=0 time=0'\n",
      "b'note_on channel=0 note=58 velocity=38 time=0'\n",
      "b'note_on channel=0 note=76 velocity=0 time=0.24171984374999997'\n",
      "b'note_on channel=0 note=79 velocity=0 time=0'\n",
      "b'note_on channel=0 note=74 velocity=61 time=0'\n",
      "b'note_on channel=0 note=77 velocity=61 time=0.0040064062499999996'\n",
      "b'note_on channel=0 note=77 velocity=0 time=0.24572624999999998'\n",
      "b'note_on channel=0 note=74 velocity=0 time=0'\n",
      "b'note_on channel=0 note=71 velocity=56 time=0'\n",
      "b'note_on channel=0 note=74 velocity=56 time=0.0040064062499999996'\n",
      "b'note_on channel=0 note=58 velocity=0 time=0'\n",
      "b'note_on channel=0 note=58 velocity=36 time=0'\n",
      "b'control_change channel=0 control=64 value=0 time=0.11351484374999998'\n",
      "b'note_on channel=0 note=74 velocity=0 time=0.13221140625'\n",
      "b'note_on channel=0 note=71 velocity=0 time=0'\n",
      "b'note_on channel=0 note=77 velocity=60 time=0'\n",
      "b'note_on channel=0 note=74 velocity=60 time=0.0040064062499999996'\n",
      "b'note_on channel=0 note=58 velocity=0 time=0'\n",
      "b'note_on channel=0 note=58 velocity=40 time=0'\n",
      "b'control_change channel=0 control=64 value=127 time=0.11485031249999998'\n",
      "b'note_on channel=0 note=74 velocity=0 time=0.13354687499999998'\n",
      "b'note_on channel=0 note=77 velocity=0 time=0'\n",
      "b'note_on channel=0 note=75 velocity=53 time=0'\n",
      "b'note_on channel=0 note=72 velocity=53 time=0.0040064062499999996'\n",
      "b'note_on channel=0 note=58 velocity=0 time=0'\n",
      "b'note_on channel=0 note=58 velocity=38 time=0'\n",
      "b'note_on channel=0 note=72 velocity=0 time=0.24973265624999996'\n",
      "b'note_on channel=0 note=75 velocity=0 time=0'\n",
      "b'note_on channel=0 note=68 velocity=53 time=0'\n",
      "b'note_on channel=0 note=72 velocity=53 time=0.0040064062499999996'\n",
      "b'note_on channel=0 note=72 velocity=0 time=0.25507453124999996'\n",
      "b'note_on channel=0 note=68 velocity=0 time=0'\n",
      "b'note_on channel=0 note=68 velocity=50 time=0'\n",
      "b'note_on channel=0 note=65 velocity=50 time=0.0040064062499999996'\n",
      "b'note_on channel=0 note=58 velocity=0 time=0'\n",
      "b'note_on channel=0 note=58 velocity=35 time=0'\n"
     ]
    },
    {
     "name": "stdout",
     "output_type": "stream",
     "text": [
      "b'note_on channel=0 note=65 velocity=0 time=0.25640999999999997'\n",
      "b'note_on channel=0 note=68 velocity=0 time=0'\n",
      "b'note_on channel=0 note=62 velocity=48 time=0'\n",
      "b'note_on channel=0 note=65 velocity=48 time=0.0040064062499999996'\n",
      "b'note_on channel=0 note=58 velocity=0 time=0'\n",
      "b'control_change channel=0 control=64 value=0 time=0'\n",
      "b'note_on channel=0 note=57 velocity=45 time=0.0040064062499999996'\n",
      "b'control_change channel=0 control=64 value=127 time=0.09615374999999998'\n",
      "b'note_on channel=0 note=57 velocity=0 time=0.14823703124999998'\n",
      "b'note_on channel=0 note=58 velocity=39 time=0'\n",
      "b'control_change channel=0 control=64 value=0 time=0.13221140625'\n",
      "b'note_on channel=0 note=58 velocity=0 time=0.06677343749999999'\n",
      "b'note_on channel=0 note=61 velocity=34 time=0'\n",
      "b'note_on channel=0 note=59 velocity=40 time=0.06543796874999999'\n",
      "b'note_on channel=0 note=61 velocity=0 time=0.022702968749999997'\n",
      "b'note_on channel=0 note=58 velocity=38 time=0.23771343749999999'\n",
      "b'note_on channel=0 note=59 velocity=0 time=0.021367499999999998'\n",
      "b'note_on channel=0 note=65 velocity=0 time=0.24305531249999998'\n",
      "b'note_on channel=0 note=62 velocity=0 time=0'\n",
      "b'note_on channel=0 note=69 velocity=51 time=0'\n",
      "b'note_on channel=0 note=78 velocity=57 time=0.0040064062499999996'\n",
      "b'note_on channel=0 note=58 velocity=0 time=0'\n",
      "b'control_change channel=0 control=64 value=127 time=0'\n",
      "b'note_on channel=0 note=63 velocity=44 time=0.0040064062499999996'\n",
      "b'note_on channel=0 note=69 velocity=0 time=0.24171984374999997'\n",
      "b'note_on channel=0 note=70 velocity=47 time=0'\n",
      "b'note_on channel=0 note=70 velocity=0 time=0.24439078124999997'\n",
      "b'note_on channel=0 note=71 velocity=52 time=0'\n",
      "b'note_on channel=0 note=63 velocity=0 time=0'\n",
      "b'note_on channel=0 note=56 velocity=30 time=0.0040064062499999996'\n",
      "b'note_on channel=0 note=71 velocity=0 time=0.24305531249999998'\n",
      "b'note_on channel=0 note=78 velocity=0 time=0'\n",
      "b'note_on channel=0 note=72 velocity=40 time=0'\n",
      "b'note_on channel=0 note=80 velocity=52 time=0.0040064062499999996'\n",
      "b'control_change channel=0 control=64 value=0 time=0.10950843749999999'\n",
      "b'note_on channel=0 note=80 velocity=0 time=0.12686953124999997'\n",
      "b'note_on channel=0 note=78 velocity=60 time=0'\n",
      "b'note_on channel=0 note=56 velocity=0 time=0'\n",
      "b'note_on channel=0 note=57 velocity=44 time=0.0040064062499999996'\n",
      "b'control_change channel=0 control=64 value=127 time=0.016025624999999998'\n",
      "b'note_on channel=0 note=78 velocity=0 time=0.06276703125'\n",
      "b'note_on channel=0 note=80 velocity=49 time=0'\n",
      "b'note_on channel=0 note=80 velocity=0 time=0.08279906249999999'\n",
      "b'note_on channel=0 note=78 velocity=49 time=0'\n",
      "b'note_on channel=0 note=78 velocity=0 time=0.08146359375'\n",
      "b'note_on channel=0 note=77 velocity=55 time=0'\n",
      "b'note_on channel=0 note=63 velocity=47 time=0'\n",
      "b'note_on channel=0 note=77 velocity=0 time=0.25373906249999995'\n",
      "b'note_on channel=0 note=76 velocity=56 time=0'\n",
      "b'note_on channel=0 note=76 velocity=0 time=0.25240359375'\n",
      "b'note_on channel=0 note=77 velocity=49 time=0'\n",
      "b'note_on channel=0 note=63 velocity=0 time=0'\n",
      "b'note_on channel=0 note=60 velocity=36 time=0.0040064062499999996'\n",
      "b'control_change channel=0 control=64 value=0 time=0.18162374999999997'\n",
      "b'note_on channel=0 note=77 velocity=0 time=0.07077984374999999'\n",
      "b'note_on channel=0 note=72 velocity=0 time=0'\n",
      "b'note_on channel=0 note=73 velocity=57 time=0'\n",
      "b'note_on channel=0 note=64 velocity=51 time=0.0040064062499999996'\n",
      "b'note_on channel=0 note=60 velocity=0 time=0'\n",
      "b'note_on channel=0 note=57 velocity=0 time=0'\n",
      "b'control_change channel=0 control=64 value=127 time=0.0040064062499999996'\n",
      "b'note_on channel=0 note=58 velocity=44 time=0'\n",
      "b'note_on channel=0 note=64 velocity=0 time=0.24171984374999997'\n",
      "b'note_on channel=0 note=65 velocity=47 time=0'\n",
      "b'note_on channel=0 note=65 velocity=0 time=0.18429468749999997'\n",
      "b'note_on channel=0 note=68 velocity=46 time=0'\n",
      "b'note_on channel=0 note=68 velocity=0 time=0.061431562499999995'\n",
      "b'note_on channel=0 note=66 velocity=52 time=0'\n",
      "b'note_on channel=0 note=58 velocity=0 time=0'\n",
      "b'note_on channel=0 note=56 velocity=30 time=0.0040064062499999996'\n",
      "b'note_on channel=0 note=66 velocity=0 time=0.24305531249999998'\n",
      "b'note_on channel=0 note=73 velocity=0 time=0'\n",
      "b'note_on channel=0 note=73 velocity=52 time=0'\n",
      "b'note_on channel=0 note=65 velocity=40 time=0.0040064062499999996'\n",
      "b'control_change channel=0 control=64 value=0 time=0.11084390624999998'\n",
      "b'note_on channel=0 note=65 velocity=0 time=0.1255340625'\n",
      "b'note_on channel=0 note=73 velocity=0 time=0'\n",
      "b'note_on channel=0 note=64 velocity=39 time=0'\n",
      "b'note_on channel=0 note=70 velocity=40 time=0.0040064062499999996'\n",
      "b'note_on channel=0 note=73 velocity=60 time=0'\n",
      "b'note_on channel=0 note=56 velocity=0 time=0'\n",
      "b'note_on channel=0 note=55 velocity=40 time=0.0040064062499999996'\n",
      "b'control_change channel=0 control=64 value=127 time=0.013354687499999999'\n",
      "b'note_on channel=0 note=73 velocity=0 time=0.22702968749999997'\n",
      "b'note_on channel=0 note=72 velocity=55 time=0'\n",
      "b'note_on channel=0 note=72 velocity=0 time=0.25240359375'\n",
      "b'note_on channel=0 note=71 velocity=56 time=0'\n",
      "b'note_on channel=0 note=71 velocity=0 time=0.25373906249999995'\n",
      "b'note_on channel=0 note=72 velocity=49 time=0'\n",
      "b'note_on channel=0 note=48 velocity=36 time=0'\n",
      "b'control_change channel=0 control=64 value=0 time=0.18563015624999998'\n",
      "b'note_on channel=0 note=72 velocity=0 time=0.07077984374999999'\n",
      "b'note_on channel=0 note=70 velocity=0 time=0'\n",
      "b'note_on channel=0 note=64 velocity=0 time=0'\n",
      "b'note_on channel=0 note=68 velocity=51 time=0.0040064062499999996'\n",
      "b'note_on channel=0 note=72 velocity=51 time=0'\n",
      "b'note_on channel=0 note=48 velocity=0 time=0'\n",
      "b'note_on channel=0 note=55 velocity=0 time=0.0040064062499999996'\n",
      "b'note_on channel=0 note=48 velocity=34 time=0'\n",
      "b'note_on channel=0 note=41 velocity=37 time=0'\n",
      "b'control_change channel=0 control=64 value=127 time=0.02003203125'\n",
      "b'note_on channel=0 note=48 velocity=0 time=0.22168781249999997'\n",
      "b'note_on channel=0 note=48 velocity=35 time=0'\n",
      "b'note_on channel=0 note=72 velocity=0 time=0.24973265624999996'\n",
      "b'note_on channel=0 note=68 velocity=0 time=0'\n",
      "b'note_on channel=0 note=73 velocity=56 time=0'\n",
      "b'note_on channel=0 note=70 velocity=56 time=0.0040064062499999996'\n",
      "b'note_on channel=0 note=70 velocity=0 time=0.24038437499999998'\n",
      "b'note_on channel=0 note=73 velocity=0 time=0'\n",
      "b'note_on channel=0 note=73 velocity=52 time=0'\n",
      "b'note_on channel=0 note=77 velocity=52 time=0.0040064062499999996'\n",
      "b'note_on channel=0 note=48 velocity=0 time=0'\n",
      "b'note_on channel=0 note=48 velocity=34 time=0'\n",
      "b'note_on channel=0 note=77 velocity=0 time=0.24572624999999998'\n",
      "b'note_on channel=0 note=73 velocity=0 time=0'\n",
      "b'note_on channel=0 note=73 velocity=55 time=0'\n",
      "b'note_on channel=0 note=70 velocity=55 time=0.0040064062499999996'\n",
      "b'note_on channel=0 note=48 velocity=0 time=0'\n",
      "b'note_on channel=0 note=41 velocity=0 time=0'\n",
      "b'note_on channel=0 note=48 velocity=34 time=0.0040064062499999996'\n",
      "b'note_on channel=0 note=41 velocity=37 time=0'\n",
      "b'control_change channel=0 control=64 value=0 time=0'\n",
      "b'control_change channel=0 control=64 value=127 time=0.11084390624999998'\n",
      "b'note_on channel=0 note=48 velocity=0 time=0.13488234375'\n",
      "b'note_on channel=0 note=48 velocity=35 time=0'\n",
      "b'note_on channel=0 note=70 velocity=0 time=0.25373906249999995'\n",
      "b'note_on channel=0 note=73 velocity=0 time=0'\n",
      "b'note_on channel=0 note=67 velocity=51 time=0'\n",
      "b'note_on channel=0 note=70 velocity=51 time=0.0040064062499999996'\n",
      "b'note_on channel=0 note=48 velocity=0 time=0.24973265624999996'\n",
      "b'note_on channel=0 note=48 velocity=34 time=0'\n",
      "b'note_on channel=0 note=70 velocity=0 time=0.25507453124999996'\n",
      "b'note_on channel=0 note=67 velocity=0 time=0'\n",
      "b'note_on channel=0 note=67 velocity=51 time=0'\n",
      "b'note_on channel=0 note=64 velocity=51 time=0.0040064062499999996'\n",
      "b'note_on channel=0 note=48 velocity=0 time=0'\n",
      "b'note_on channel=0 note=41 velocity=0 time=0'\n",
      "b'note_on channel=0 note=48 velocity=34 time=0.0040064062499999996'\n",
      "b'note_on channel=0 note=41 velocity=37 time=0'\n",
      "b'control_change channel=0 control=64 value=0 time=0.10817296874999999'\n",
      "b'control_change channel=0 control=64 value=127 time=0.11752125'\n",
      "b'note_on channel=0 note=64 velocity=0 time=0.01469015625'\n",
      "b'note_on channel=0 note=67 velocity=0 time=0'\n",
      "b'note_on channel=0 note=68 velocity=52 time=0'\n",
      "b'note_on channel=0 note=65 velocity=52 time=0.0040064062499999996'\n",
      "b'note_on channel=0 note=48 velocity=0 time=0'\n",
      "b'note_on channel=0 note=48 velocity=35 time=0'\n"
     ]
    },
    {
     "name": "stdout",
     "output_type": "stream",
     "text": [
      "b'note_on channel=0 note=65 velocity=0 time=0.24439078124999997'\n",
      "b'note_on channel=0 note=68 velocity=0 time=0'\n",
      "b'note_on channel=0 note=67 velocity=57 time=0'\n",
      "b'note_on channel=0 note=70 velocity=57 time=0.0040064062499999996'\n",
      "b'note_on channel=0 note=70 velocity=0 time=0.24038437499999998'\n",
      "b'note_on channel=0 note=67 velocity=0 time=0'\n",
      "b'note_on channel=0 note=70 velocity=52 time=0'\n",
      "b'note_on channel=0 note=73 velocity=52 time=0.0040064062499999996'\n",
      "b'note_on channel=0 note=48 velocity=0 time=0'\n",
      "b'note_on channel=0 note=48 velocity=34 time=0'\n",
      "b'note_on channel=0 note=73 velocity=0 time=0.25640999999999997'\n",
      "b'note_on channel=0 note=70 velocity=0 time=0'\n",
      "b'note_on channel=0 note=72 velocity=47 time=0'\n",
      "b'note_on channel=0 note=68 velocity=47 time=0.0040064062499999996'\n",
      "b'note_on channel=0 note=48 velocity=0 time=0'\n",
      "b'note_on channel=0 note=41 velocity=0 time=0'\n",
      "b'note_on channel=0 note=41 velocity=50 time=0.0040064062499999996'\n",
      "b'control_change channel=0 control=64 value=0 time=0'\n",
      "b'note_on channel=0 note=48 velocity=50 time=0'\n",
      "b'control_change channel=0 control=64 value=127 time=0.22168781249999997'\n",
      "b'note_on channel=0 note=41 velocity=0 time=0.0293803125'\n",
      "b'note_on channel=0 note=41 velocity=53 time=0'\n",
      "b'note_on channel=0 note=41 velocity=0 time=0.5194973437499999'\n",
      "b'note_on channel=0 note=40 velocity=54 time=0'\n",
      "b'control_change channel=0 control=64 value=0 time=0.05742515624999999'\n",
      "b'note_on channel=0 note=68 velocity=0 time=0.20299124999999998'\n",
      "b'note_on channel=0 note=72 velocity=0 time=0'\n",
      "b'note_on channel=0 note=68 velocity=69 time=0'\n",
      "b'note_on channel=0 note=72 velocity=69 time=0.0040064062499999996'\n",
      "b'note_on channel=0 note=40 velocity=0 time=0'\n",
      "b'note_on channel=0 note=48 velocity=0 time=0'\n",
      "b'note_on channel=0 note=39 velocity=56 time=0.0040064062499999996'\n",
      "b'control_change channel=0 control=64 value=127 time=0.02003203125'\n",
      "b'note_on channel=0 note=39 velocity=0 time=0.21768140625'\n",
      "b'note_on channel=0 note=63 velocity=44 time=0'\n",
      "b'note_on channel=0 note=72 velocity=0 time=0.24706171874999996'\n",
      "b'note_on channel=0 note=68 velocity=0 time=0'\n",
      "b'note_on channel=0 note=75 velocity=65 time=0'\n",
      "b'note_on channel=0 note=72 velocity=65 time=0.0040064062499999996'\n",
      "b'note_on channel=0 note=72 velocity=0 time=0.24038437499999998'\n",
      "b'note_on channel=0 note=75 velocity=0 time=0'\n",
      "b'note_on channel=0 note=77 velocity=59 time=0'\n",
      "b'note_on channel=0 note=80 velocity=59 time=0.0040064062499999996'\n",
      "b'note_on channel=0 note=63 velocity=0 time=0'\n",
      "b'note_on channel=0 note=63 velocity=42 time=0'\n",
      "b'note_on channel=0 note=80 velocity=0 time=0.24572624999999998'\n",
      "b'note_on channel=0 note=77 velocity=0 time=0'\n",
      "b'note_on channel=0 note=73 velocity=63 time=0'\n",
      "b'note_on channel=0 note=77 velocity=63 time=0.0040064062499999996'\n",
      "b'note_on channel=0 note=63 velocity=0 time=0'\n",
      "b'note_on channel=0 note=63 velocity=42 time=0'\n",
      "b'control_change channel=0 control=64 value=0 time=0.0040064062499999996'\n",
      "b'control_change channel=0 control=64 value=127 time=0.11217937499999998'\n",
      "b'note_on channel=0 note=63 velocity=0 time=0.13354687499999998'\n",
      "b'note_on channel=0 note=63 velocity=44 time=0'\n",
      "b'note_on channel=0 note=77 velocity=0 time=0.25373906249999995'\n",
      "b'note_on channel=0 note=73 velocity=0 time=0'\n",
      "b'note_on channel=0 note=73 velocity=60 time=0'\n",
      "b'note_on channel=0 note=70 velocity=60 time=0.0040064062499999996'\n",
      "b'note_on channel=0 note=63 velocity=0 time=0.251068125'\n",
      "b'note_on channel=0 note=63 velocity=42 time=0'\n",
      "b'note_on channel=0 note=70 velocity=0 time=0.25373906249999995'\n",
      "b'note_on channel=0 note=73 velocity=0 time=0'\n",
      "b'note_on channel=0 note=67 velocity=65 time=0'\n",
      "b'note_on channel=0 note=70 velocity=65 time=0.0040064062499999996'\n",
      "b'note_on channel=0 note=63 velocity=0 time=0'\n",
      "b'note_on channel=0 note=63 velocity=42 time=0'\n",
      "b'control_change channel=0 control=64 value=0 time=0.11351484374999998'\n",
      "b'control_change channel=0 control=64 value=127 time=0.11618578124999998'\n",
      "b'note_on channel=0 note=70 velocity=0 time=0.01469015625'\n",
      "b'note_on channel=0 note=67 velocity=0 time=0'\n",
      "b'note_on channel=0 note=72 velocity=60 time=0'\n",
      "b'note_on channel=0 note=68 velocity=60 time=0.0040064062499999996'\n",
      "b'note_on channel=0 note=63 velocity=0 time=0'\n",
      "b'note_on channel=0 note=63 velocity=44 time=0'\n",
      "b'note_on channel=0 note=68 velocity=0 time=0.24439078124999997'\n",
      "b'note_on channel=0 note=72 velocity=0 time=0'\n",
      "b'note_on channel=0 note=70 velocity=70 time=0'\n",
      "b'note_on channel=0 note=73 velocity=70 time=0.0040064062499999996'\n",
      "b'note_on channel=0 note=73 velocity=0 time=0.24038437499999998'\n",
      "b'note_on channel=0 note=70 velocity=0 time=0'\n",
      "b'note_on channel=0 note=73 velocity=59 time=0'\n",
      "b'note_on channel=0 note=76 velocity=59 time=0.0040064062499999996'\n",
      "b'note_on channel=0 note=63 velocity=0 time=0'\n",
      "b'note_on channel=0 note=63 velocity=42 time=0'\n",
      "b'note_on channel=0 note=76 velocity=0 time=0.25640999999999997'\n",
      "b'note_on channel=0 note=73 velocity=0 time=0'\n",
      "b'note_on channel=0 note=75 velocity=53 time=0'\n",
      "b'note_on channel=0 note=72 velocity=53 time=0.0040064062499999996'\n",
      "b'note_on channel=0 note=63 velocity=0 time=0'\n",
      "b'note_on channel=0 note=56 velocity=49 time=0'\n",
      "b'control_change channel=0 control=64 value=0 time=0.0040064062499999996'\n",
      "b'control_change channel=0 control=64 value=127 time=0.22302328124999998'\n",
      "b'note_on channel=0 note=56 velocity=0 time=0.028044843749999996'\n",
      "b'note_on channel=0 note=63 velocity=46 time=0'\n",
      "b'note_on channel=0 note=63 velocity=0 time=0.2644228125'\n",
      "b'note_on channel=0 note=68 velocity=53 time=0'\n",
      "b'note_on channel=0 note=68 velocity=0 time=0.2644228125'\n",
      "b'note_on channel=0 note=67 velocity=48 time=0'\n",
      "b'control_change channel=0 control=64 value=0 time=0.058760625'\n",
      "b'note_on channel=0 note=72 velocity=0 time=0.20566218749999998'\n",
      "b'note_on channel=0 note=75 velocity=0 time=0'\n",
      "b'note_on channel=0 note=68 velocity=39 time=0'\n",
      "b'note_on channel=0 note=72 velocity=39 time=0.0040064062499999996'\n",
      "b'note_on channel=0 note=75 velocity=47 time=0'\n",
      "b'note_on channel=0 note=67 velocity=0 time=0'\n",
      "b'control_change channel=0 control=64 value=127 time=0.0040064062499999996'\n",
      "b'note_on channel=0 note=67 velocity=54 time=0'\n",
      "b'note_on channel=0 note=75 velocity=0 time=0.24171984374999997'\n",
      "b'note_on channel=0 note=72 velocity=0 time=0'\n",
      "b'note_on channel=0 note=68 velocity=0 time=0'\n",
      "b'note_on channel=0 note=72 velocity=35 time=0.0040064062499999996'\n",
      "b'note_on channel=0 note=68 velocity=35 time=0'\n",
      "b'note_on channel=0 note=75 velocity=42 time=0'\n",
      "b'note_on channel=0 note=75 velocity=0 time=0.48878156249999993'\n",
      "b'note_on channel=0 note=68 velocity=0 time=0'\n",
      "b'note_on channel=0 note=72 velocity=0 time=0'\n",
      "b'note_on channel=0 note=68 velocity=31 time=0.0040064062499999996'\n",
      "b'note_on channel=0 note=75 velocity=37 time=0'\n",
      "b'note_on channel=0 note=72 velocity=31 time=0'\n",
      "b'note_on channel=0 note=67 velocity=0 time=0.0040064062499999996'\n",
      "b'note_on channel=0 note=65 velocity=50 time=0'\n",
      "b'note_on channel=0 note=72 velocity=0 time=0.24439078124999997'\n",
      "b'note_on channel=0 note=75 velocity=0 time=0'\n",
      "b'note_on channel=0 note=68 velocity=0 time=0'\n",
      "b'note_on channel=0 note=68 velocity=39 time=0.0040064062499999996'\n",
      "b'note_on channel=0 note=75 velocity=47 time=0'\n",
      "b'note_on channel=0 note=72 velocity=39 time=0'\n",
      "b'note_on channel=0 note=65 velocity=0 time=0.0040064062499999996'\n",
      "b'control_change channel=0 control=64 value=0 time=0'\n",
      "b'note_on channel=0 note=60 velocity=53 time=0'\n",
      "b'control_change channel=0 control=64 value=127 time=0.0988246875'\n",
      "b'note_on channel=0 note=72 velocity=0 time=0.14155968749999998'\n",
      "b'note_on channel=0 note=75 velocity=0 time=0'\n",
      "b'note_on channel=0 note=68 velocity=0 time=0'\n",
      "b'note_on channel=0 note=75 velocity=42 time=0.0040064062499999996'\n",
      "b'note_on channel=0 note=72 velocity=35 time=0'\n",
      "b'note_on channel=0 note=68 velocity=35 time=0'\n",
      "b'note_on channel=0 note=60 velocity=0 time=0.24439078124999997'\n",
      "b'note_on channel=0 note=59 velocity=48 time=0'\n",
      "b'note_on channel=0 note=68 velocity=0 time=0.24572624999999998'\n",
      "b'note_on channel=0 note=72 velocity=0 time=0'\n",
      "b'note_on channel=0 note=75 velocity=0 time=0'\n",
      "b'note_on channel=0 note=72 velocity=31 time=0.0040064062499999996'\n",
      "b'note_on channel=0 note=68 velocity=31 time=0'\n",
      "b'note_on channel=0 note=75 velocity=37 time=0'\n",
      "b'note_on channel=0 note=59 velocity=0 time=0.0040064062499999996'\n",
      "b'note_on channel=0 note=60 velocity=42 time=0'\n"
     ]
    },
    {
     "name": "stdout",
     "output_type": "stream",
     "text": [
      "b'note_on channel=0 note=75 velocity=0 time=0.23771343749999999'\n",
      "b'note_on channel=0 note=68 velocity=0 time=0'\n",
      "b'note_on channel=0 note=72 velocity=0 time=0'\n",
      "b'note_on channel=0 note=60 velocity=0 time=0.0040064062499999996'\n",
      "b'control_change channel=0 control=64 value=0 time=0'\n",
      "b'note_on channel=0 note=65 velocity=53 time=0'\n",
      "b'control_change channel=0 control=64 value=127 time=0.12419859374999999'\n",
      "b'note_on channel=0 note=68 velocity=35 time=0.11485031249999998'\n",
      "b'note_on channel=0 note=75 velocity=43 time=0'\n",
      "b'note_on channel=0 note=72 velocity=35 time=0'\n",
      "b'note_on channel=0 note=72 velocity=0 time=0.24839718749999998'\n",
      "b'note_on channel=0 note=75 velocity=0 time=0'\n",
      "b'note_on channel=0 note=68 velocity=0 time=0'\n",
      "b'note_on channel=0 note=65 velocity=0 time=0.0040064062499999996'\n",
      "b'note_on channel=0 note=67 velocity=51 time=0'\n",
      "b'note_on channel=0 note=68 velocity=36 time=0.23904890624999997'\n",
      "b'note_on channel=0 note=72 velocity=36 time=0'\n",
      "b'note_on channel=0 note=75 velocity=44 time=0'\n",
      "b'note_on channel=0 note=75 velocity=0 time=0.251068125'\n",
      "b'note_on channel=0 note=72 velocity=0 time=0'\n",
      "b'note_on channel=0 note=68 velocity=0 time=0'\n",
      "b'note_on channel=0 note=67 velocity=0 time=0.0040064062499999996'\n",
      "b'control_change channel=0 control=64 value=0 time=0'\n",
      "b'note_on channel=0 note=67 velocity=53 time=0'\n",
      "b'control_change channel=0 control=64 value=127 time=0.053418749999999994'\n",
      "b'note_on channel=0 note=72 velocity=36 time=0.19230749999999996'\n",
      "b'note_on channel=0 note=75 velocity=44 time=0'\n",
      "b'note_on channel=0 note=68 velocity=36 time=0'\n",
      "b'note_on channel=0 note=68 velocity=0 time=0.251068125'\n",
      "b'note_on channel=0 note=75 velocity=0 time=0'\n",
      "b'note_on channel=0 note=72 velocity=0 time=0'\n",
      "b'note_on channel=0 note=67 velocity=0 time=0.0040064062499999996'\n",
      "b'note_on channel=0 note=65 velocity=52 time=0'\n",
      "b'note_on channel=0 note=68 velocity=34 time=0.24706171874999996'\n",
      "b'note_on channel=0 note=72 velocity=34 time=0'\n",
      "b'note_on channel=0 note=75 velocity=40 time=0'\n",
      "b'control_change channel=0 control=64 value=0 time=0.058760625'\n",
      "b'note_on channel=0 note=75 velocity=0 time=0.19230749999999996'\n",
      "b'note_on channel=0 note=72 velocity=0 time=0'\n",
      "b'note_on channel=0 note=68 velocity=0 time=0'\n",
      "b'note_on channel=0 note=72 velocity=35 time=0.0040064062499999996'\n",
      "b'note_on channel=0 note=68 velocity=35 time=0'\n",
      "b'note_on channel=0 note=75 velocity=42 time=0'\n",
      "b'note_on channel=0 note=65 velocity=0 time=0.0040064062499999996'\n",
      "b'control_change channel=0 control=64 value=127 time=0'\n",
      "b'note_on channel=0 note=67 velocity=54 time=0'\n",
      "b'note_on channel=0 note=75 velocity=0 time=0.24171984374999997'\n",
      "b'note_on channel=0 note=68 velocity=0 time=0'\n",
      "b'note_on channel=0 note=72 velocity=0 time=0'\n",
      "b'note_on channel=0 note=68 velocity=35 time=0.0040064062499999996'\n",
      "b'note_on channel=0 note=75 velocity=42 time=0'\n",
      "b'note_on channel=0 note=72 velocity=35 time=0'\n",
      "b'note_on channel=0 note=72 velocity=0 time=0.4874460937499999'\n",
      "b'note_on channel=0 note=75 velocity=0 time=0'\n",
      "b'note_on channel=0 note=68 velocity=0 time=0'\n",
      "b'note_on channel=0 note=68 velocity=31 time=0.0040064062499999996'\n",
      "b'note_on channel=0 note=72 velocity=31 time=0'\n",
      "b'note_on channel=0 note=75 velocity=37 time=0'\n",
      "b'note_on channel=0 note=67 velocity=0 time=0.0040064062499999996'\n",
      "b'note_on channel=0 note=65 velocity=50 time=0'\n",
      "b'note_on channel=0 note=75 velocity=0 time=0.23771343749999999'\n",
      "b'note_on channel=0 note=72 velocity=0 time=0'\n",
      "b'note_on channel=0 note=68 velocity=0 time=0'\n",
      "b'note_on channel=0 note=72 velocity=39 time=0.0040064062499999996'\n",
      "b'note_on channel=0 note=75 velocity=47 time=0'\n",
      "b'note_on channel=0 note=68 velocity=39 time=0'\n",
      "b'note_on channel=0 note=65 velocity=0 time=0.0040064062499999996'\n",
      "b'control_change channel=0 control=64 value=0 time=0'\n",
      "b'note_on channel=0 note=60 velocity=53 time=0'\n",
      "b'control_change channel=0 control=64 value=127 time=0.09615374999999998'\n",
      "b'note_on channel=0 note=68 velocity=0 time=0.13888874999999998'\n",
      "b'note_on channel=0 note=75 velocity=0 time=0'\n",
      "b'note_on channel=0 note=72 velocity=0 time=0'\n",
      "b'note_on channel=0 note=68 velocity=35 time=0.0040064062499999996'\n",
      "b'note_on channel=0 note=72 velocity=35 time=0'\n",
      "b'note_on channel=0 note=75 velocity=42 time=0'\n",
      "b'note_on channel=0 note=60 velocity=0 time=0.23904890624999997'\n",
      "b'note_on channel=0 note=59 velocity=48 time=0'\n",
      "b'note_on channel=0 note=75 velocity=0 time=0.23771343749999999'\n",
      "b'note_on channel=0 note=72 velocity=0 time=0'\n",
      "b'note_on channel=0 note=68 velocity=0 time=0'\n",
      "b'note_on channel=0 note=72 velocity=31 time=0.0040064062499999996'\n",
      "b'note_on channel=0 note=68 velocity=31 time=0'\n",
      "b'note_on channel=0 note=75 velocity=37 time=0'\n",
      "b'note_on channel=0 note=59 velocity=0 time=0.0040064062499999996'\n",
      "b'note_on channel=0 note=60 velocity=42 time=0'\n",
      "b'note_on channel=0 note=75 velocity=0 time=0.23103609374999998'\n",
      "b'note_on channel=0 note=68 velocity=0 time=0'\n",
      "b'note_on channel=0 note=72 velocity=0 time=0'\n",
      "b'note_on channel=0 note=60 velocity=0 time=0.0040064062499999996'\n",
      "b'control_change channel=0 control=64 value=0 time=0'\n",
      "b'note_on channel=0 note=65 velocity=53 time=0'\n",
      "b'control_change channel=0 control=64 value=127 time=0.12286312499999999'\n",
      "b'note_on channel=0 note=68 velocity=35 time=0.11351484374999998'\n",
      "b'note_on channel=0 note=75 velocity=43 time=0'\n",
      "b'note_on channel=0 note=72 velocity=35 time=0'\n",
      "b'note_on channel=0 note=65 velocity=0 time=0.0040064062499999996'\n",
      "b'note_on channel=0 note=67 velocity=49 time=0'\n",
      "b'note_on channel=0 note=72 velocity=0 time=0.23637796874999997'\n",
      "b'note_on channel=0 note=75 velocity=0 time=0'\n",
      "b'note_on channel=0 note=68 velocity=0 time=0'\n",
      "b'note_on channel=0 note=67 velocity=0 time=0.0040064062499999996'\n",
      "b'note_on channel=0 note=68 velocity=51 time=0'\n",
      "b'note_on channel=0 note=68 velocity=36 time=0.23904890624999997'\n",
      "b'note_on channel=0 note=75 velocity=44 time=0'\n",
      "b'note_on channel=0 note=72 velocity=36 time=0'\n",
      "b'note_on channel=0 note=68 velocity=0 time=0.0040064062499999996'\n",
      "b'note_on channel=0 note=67 velocity=47 time=0'\n",
      "b'note_on channel=0 note=72 velocity=0 time=0.24706171874999996'\n",
      "b'note_on channel=0 note=75 velocity=0 time=0'\n",
      "b'note_on channel=0 note=68 velocity=0 time=0'\n",
      "b'note_on channel=0 note=67 velocity=0 time=0.0040064062499999996'\n",
      "b'control_change channel=0 control=64 value=0 time=0'\n",
      "b'note_on channel=0 note=67 velocity=53 time=0'\n",
      "b'control_change channel=0 control=64 value=127 time=0.05475421874999999'\n",
      "b'note_on channel=0 note=72 velocity=36 time=0.19097203124999998'\n",
      "b'note_on channel=0 note=75 velocity=44 time=0'\n",
      "b'note_on channel=0 note=68 velocity=36 time=0'\n",
      "b'note_on channel=0 note=68 velocity=0 time=0.24973265624999996'\n",
      "b'note_on channel=0 note=75 velocity=0 time=0'\n",
      "b'note_on channel=0 note=72 velocity=0 time=0'\n",
      "b'note_on channel=0 note=67 velocity=0 time=0.0040064062499999996'\n",
      "b'note_on channel=0 note=65 velocity=52 time=0'\n",
      "b'note_on channel=0 note=68 velocity=34 time=0.24706171874999996'\n",
      "b'note_on channel=0 note=72 velocity=34 time=0'\n",
      "b'note_on channel=0 note=75 velocity=40 time=0'\n",
      "b'control_change channel=0 control=64 value=0 time=0.05742515624999999'\n",
      "b'note_on channel=0 note=75 velocity=0 time=0.19230749999999996'\n",
      "b'note_on channel=0 note=72 velocity=0 time=0'\n",
      "b'note_on channel=0 note=68 velocity=0 time=0'\n",
      "b'note_on channel=0 note=80 velocity=72 time=0.0040064062499999996'\n",
      "b'note_on channel=0 note=84 velocity=72 time=0'\n",
      "b'note_on channel=0 note=65 velocity=0 time=0'\n",
      "b'control_change channel=0 control=64 value=0 time=0.0040064062499999996'\n",
      "b'note_on channel=0 note=34 velocity=54 time=0'\n",
      "b'control_change channel=0 control=64 value=127 time=0.09748921875'\n",
      "b'note_on channel=0 note=34 velocity=0 time=0.1522434375'\n",
      "b'note_on channel=0 note=58 velocity=47 time=0'\n",
      "b'note_on channel=0 note=84 velocity=0 time=0.49412343749999993'\n",
      "b'note_on channel=0 note=80 velocity=0 time=0'\n",
      "b'note_on channel=0 note=76 velocity=57 time=0'\n",
      "b'note_on channel=0 note=79 velocity=57 time=0.0040064062499999996'\n",
      "b'note_on channel=0 note=58 velocity=0 time=0'\n",
      "b'note_on channel=0 note=58 velocity=38 time=0'\n",
      "b'note_on channel=0 note=79 velocity=0 time=0.24171984374999997'\n",
      "b'note_on channel=0 note=76 velocity=0 time=0'\n",
      "b'note_on channel=0 note=82 velocity=63 time=0'\n",
      "b'note_on channel=0 note=79 velocity=63 time=0.0040064062499999996'\n",
      "b'note_on channel=0 note=58 velocity=0 time=0'\n",
      "b'note_on channel=0 note=58 velocity=39 time=0'\n"
     ]
    },
    {
     "name": "stdout",
     "output_type": "stream",
     "text": [
      "b'note_on channel=0 note=58 velocity=0 time=0.24171984374999997'\n",
      "b'note_on channel=0 note=58 velocity=38 time=0'\n",
      "b'note_on channel=0 note=79 velocity=0 time=0.24572624999999998'\n",
      "b'note_on channel=0 note=82 velocity=0 time=0'\n",
      "b'note_on channel=0 note=80 velocity=61 time=0'\n",
      "b'note_on channel=0 note=77 velocity=61 time=0.0040064062499999996'\n",
      "b'note_on channel=0 note=77 velocity=0 time=0.24572624999999998'\n",
      "b'note_on channel=0 note=80 velocity=0 time=0'\n",
      "b'note_on channel=0 note=74 velocity=56 time=0'\n",
      "b'note_on channel=0 note=77 velocity=56 time=0.0040064062499999996'\n",
      "b'note_on channel=0 note=58 velocity=0 time=0'\n",
      "b'note_on channel=0 note=58 velocity=36 time=0'\n",
      "b'control_change channel=0 control=64 value=0 time=0.11351484374999998'\n",
      "b'note_on channel=0 note=77 velocity=0 time=0.13221140625'\n",
      "b'note_on channel=0 note=74 velocity=0 time=0'\n",
      "b'note_on channel=0 note=74 velocity=63 time=0'\n",
      "b'note_on channel=0 note=70 velocity=63 time=0.0040064062499999996'\n",
      "b'note_on channel=0 note=58 velocity=0 time=0'\n",
      "b'note_on channel=0 note=58 velocity=39 time=0'\n",
      "b'control_change channel=0 control=64 value=127 time=0.06944437499999999'\n",
      "b'note_on channel=0 note=58 velocity=0 time=0.17628187499999998'\n",
      "b'note_on channel=0 note=58 velocity=38 time=0'\n",
      "b'note_on channel=0 note=70 velocity=0 time=0.24973265624999996'\n",
      "b'note_on channel=0 note=74 velocity=0 time=0'\n",
      "b'note_on channel=0 note=67 velocity=54 time=0'\n",
      "b'note_on channel=0 note=70 velocity=54 time=0.0040064062499999996'\n",
      "b'note_on channel=0 note=58 velocity=0 time=0.24572624999999998'\n",
      "b'note_on channel=0 note=58 velocity=36 time=0'\n",
      "b'note_on channel=0 note=70 velocity=0 time=0.25240359375'\n",
      "b'note_on channel=0 note=67 velocity=0 time=0'\n",
      "b'note_on channel=0 note=64 velocity=56 time=0'\n",
      "b'note_on channel=0 note=67 velocity=56 time=0.0040064062499999996'\n",
      "b'note_on channel=0 note=58 velocity=0 time=0'\n",
      "b'control_change channel=0 control=64 value=0 time=0'\n",
      "b'note_on channel=0 note=58 velocity=39 time=0.0040064062499999996'\n",
      "b'control_change channel=0 control=64 value=127 time=0.14155968749999998'\n",
      "b'note_on channel=0 note=58 velocity=0 time=0.10416656249999999'\n",
      "b'note_on channel=0 note=58 velocity=38 time=0'\n",
      "b'note_on channel=0 note=67 velocity=0 time=0.25373906249999995'\n",
      "b'note_on channel=0 note=64 velocity=0 time=0'\n",
      "b'note_on channel=0 note=68 velocity=52 time=0'\n",
      "b'note_on channel=0 note=65 velocity=52 time=0.0040064062499999996'\n",
      "b'note_on channel=0 note=58 velocity=0 time=0.25373906249999995'\n",
      "b'note_on channel=0 note=58 velocity=36 time=0'\n",
      "b'control_change channel=0 control=64 value=0 time=0.060096093749999996'\n",
      "b'note_on channel=0 note=65 velocity=0 time=0.19898484374999997'\n",
      "b'note_on channel=0 note=68 velocity=0 time=0'\n",
      "b'note_on channel=0 note=66 velocity=50 time=0'\n",
      "b'note_on channel=0 note=71 velocity=56 time=0.0040064062499999996'\n",
      "b'note_on channel=0 note=58 velocity=0 time=0'\n",
      "b'note_on channel=0 note=57 velocity=37 time=0'\n",
      "b'note_on channel=0 note=63 velocity=56 time=0.0040064062499999996'\n",
      "b'control_change channel=0 control=64 value=127 time=0.0040064062499999996'\n",
      "b'note_on channel=0 note=57 velocity=0 time=0.24171984374999997'\n",
      "b'note_on channel=0 note=57 velocity=37 time=0'\n",
      "b'note_on channel=0 note=71 velocity=0 time=0.50213625'\n",
      "b'note_on channel=0 note=73 velocity=51 time=0'\n",
      "b'note_on channel=0 note=57 velocity=0 time=0'\n",
      "b'note_on channel=0 note=57 velocity=37 time=0.0040064062499999996'\n",
      "b'control_change channel=0 control=64 value=0 time=0.11618578124999998'\n",
      "b'note_on channel=0 note=73 velocity=0 time=0.13488234375'\n",
      "b'note_on channel=0 note=66 velocity=0 time=0'\n",
      "b'note_on channel=0 note=71 velocity=54 time=0'\n",
      "b'note_on channel=0 note=64 velocity=46 time=0.0040064062499999996'\n",
      "b'note_on channel=0 note=57 velocity=0 time=0'\n",
      "b'note_on channel=0 note=63 velocity=0 time=0'\n",
      "b'note_on channel=0 note=56 velocity=39 time=0.0040064062499999996'\n",
      "b'control_change channel=0 control=64 value=127 time=0.0400640625'\n",
      "b'note_on channel=0 note=64 velocity=0 time=0.20299124999999998'\n",
      "b'note_on channel=0 note=71 velocity=0 time=0'\n",
      "b'note_on channel=0 note=76 velocity=55 time=0'\n",
      "b'note_on channel=0 note=76 velocity=0 time=0.251068125'\n",
      "b'note_on channel=0 note=78 velocity=57 time=0'\n",
      "b'note_on channel=0 note=56 velocity=0 time=0'\n",
      "b'note_on channel=0 note=78 velocity=0 time=0.25373906249999995'\n",
      "b'note_on channel=0 note=80 velocity=59 time=0'\n",
      "b'note_on channel=0 note=80 velocity=0 time=0.25640999999999997'\n",
      "b'note_on channel=0 note=83 velocity=59 time=0'\n",
      "b'control_change channel=0 control=64 value=0 time=0'\n",
      "b'control_change channel=0 control=64 value=127 time=0.0988246875'\n",
      "b'note_on channel=0 note=83 velocity=0 time=0.16025625'\n",
      "b'note_on channel=0 note=80 velocity=57 time=0'\n",
      "b'note_on channel=0 note=80 velocity=0 time=0.26041640624999995'\n",
      "b'note_on channel=0 note=78 velocity=55 time=0'\n",
      "b'note_on channel=0 note=78 velocity=0 time=0.26308734375'\n",
      "b'note_on channel=0 note=76 velocity=53 time=0'\n",
      "b'note_on channel=0 note=76 velocity=0 time=0.2857903125'\n",
      "b'note_on channel=0 note=75 velocity=51 time=0'\n",
      "b'note_on channel=0 note=68 velocity=42 time=0'\n",
      "b'note_on channel=0 note=65 velocity=35 time=0.0040064062499999996'\n",
      "b'note_on channel=0 note=58 velocity=35 time=0'\n",
      "b'control_change channel=0 control=64 value=0 time=0'\n",
      "b'control_change channel=0 control=64 value=127 time=0.21901687499999997'\n",
      "b'note_on channel=0 note=75 velocity=0 time=0.34855734374999997'\n",
      "b'note_on channel=0 note=74 velocity=50 time=0'\n",
      "b'control_change channel=0 control=64 value=0 time=0.31784156249999995'\n",
      "b'note_on channel=0 note=74 velocity=0 time=0.25373906249999995'\n",
      "b'note_on channel=0 note=68 velocity=0 time=0'\n",
      "b'note_on channel=0 note=79 velocity=52 time=0'\n",
      "b'note_on channel=0 note=75 velocity=52 time=0.0040064062499999996'\n",
      "b'note_on channel=0 note=58 velocity=0 time=0'\n",
      "b'note_on channel=0 note=65 velocity=0 time=0'\n",
      "b'control_change channel=0 control=64 value=0 time=0.0040064062499999996'\n",
      "b'note_on channel=0 note=58 velocity=38 time=0'\n",
      "b'note_on channel=0 note=51 velocity=32 time=0'\n",
      "b'control_change channel=0 control=64 value=127 time=0.0988246875'\n",
      "b'note_on channel=0 note=58 velocity=0 time=0.15090796874999998'\n",
      "b'note_on channel=0 note=58 velocity=35 time=0'\n",
      "b'note_on channel=0 note=75 velocity=0 time=0.5088135937499999'\n",
      "b'note_on channel=0 note=79 velocity=0 time=0'\n",
      "b'note_on channel=0 note=74 velocity=50 time=0'\n",
      "b'note_on channel=0 note=77 velocity=50 time=0.0040064062499999996'\n",
      "b'note_on channel=0 note=58 velocity=0 time=0'\n",
      "b'note_on channel=0 note=58 velocity=33 time=0'\n",
      "b'note_on channel=0 note=77 velocity=0 time=0.25774546875'\n",
      "b'note_on channel=0 note=74 velocity=0 time=0'\n",
      "b'note_on channel=0 note=80 velocity=52 time=0'\n",
      "b'note_on channel=0 note=77 velocity=52 time=0.0040064062499999996'\n",
      "b'note_on channel=0 note=58 velocity=0 time=0'\n",
      "b'note_on channel=0 note=51 velocity=0 time=0'\n",
      "b'note_on channel=0 note=58 velocity=37 time=0.0040064062499999996'\n",
      "b'note_on channel=0 note=51 velocity=32 time=0'\n",
      "b'note_on channel=0 note=58 velocity=0 time=0.24973265624999996'\n",
      "b'note_on channel=0 note=58 velocity=35 time=0'\n",
      "b'note_on channel=0 note=77 velocity=0 time=0.25774546875'\n",
      "b'note_on channel=0 note=80 velocity=0 time=0'\n",
      "b'note_on channel=0 note=74 velocity=52 time=0'\n",
      "b'note_on channel=0 note=77 velocity=52 time=0.0040064062499999996'\n",
      "b'note_on channel=0 note=77 velocity=0 time=0.24572624999999998'\n",
      "b'note_on channel=0 note=74 velocity=0 time=0'\n",
      "b'note_on channel=0 note=75 velocity=50 time=0'\n",
      "b'note_on channel=0 note=79 velocity=50 time=0.0040064062499999996'\n",
      "b'note_on channel=0 note=58 velocity=0 time=0'\n",
      "b'note_on channel=0 note=58 velocity=34 time=0'\n",
      "b'control_change channel=0 control=64 value=0 time=0.11351484374999998'\n",
      "b'note_on channel=0 note=79 velocity=0 time=0.13221140625'\n",
      "b'note_on channel=0 note=75 velocity=0 time=0'\n",
      "b'note_on channel=0 note=72 velocity=52 time=0'\n",
      "b'note_on channel=0 note=75 velocity=52 time=0.0040064062499999996'\n",
      "b'note_on channel=0 note=58 velocity=0 time=0'\n",
      "b'note_on channel=0 note=51 velocity=0 time=0'\n",
      "b'note_on channel=0 note=58 velocity=38 time=0.0040064062499999996'\n",
      "b'note_on channel=0 note=51 velocity=32 time=0'\n",
      "b'control_change channel=0 control=64 value=127 time=0.11217937499999998'\n",
      "b'note_on channel=0 note=58 velocity=0 time=0.13354687499999998'\n",
      "b'note_on channel=0 note=58 velocity=35 time=0'\n"
     ]
    },
    {
     "name": "stdout",
     "output_type": "stream",
     "text": [
      "b'note_on channel=0 note=75 velocity=0 time=0.25507453124999996'\n",
      "b'note_on channel=0 note=72 velocity=0 time=0'\n",
      "b'note_on channel=0 note=68 velocity=49 time=0'\n",
      "b'note_on channel=0 note=72 velocity=49 time=0.0040064062499999996'\n",
      "b'note_on channel=0 note=58 velocity=0 time=0.25507453124999996'\n",
      "b'note_on channel=0 note=58 velocity=33 time=0'\n",
      "b'note_on channel=0 note=72 velocity=0 time=0.26041640624999995'\n",
      "b'note_on channel=0 note=68 velocity=0 time=0'\n",
      "b'note_on channel=0 note=67 velocity=47 time=0'\n",
      "b'note_on channel=0 note=70 velocity=47 time=0.0040064062499999996'\n",
      "b'note_on channel=0 note=58 velocity=0 time=0'\n",
      "b'note_on channel=0 note=51 velocity=0 time=0'\n",
      "b'control_change channel=0 control=64 value=0 time=0.0040064062499999996'\n",
      "b'note_on channel=0 note=58 velocity=37 time=0'\n",
      "b'note_on channel=0 note=51 velocity=32 time=0'\n",
      "b'control_change channel=0 control=64 value=127 time=0.0988246875'\n",
      "b'note_on channel=0 note=58 velocity=0 time=0.1522434375'\n",
      "b'note_on channel=0 note=58 velocity=35 time=0'\n",
      "b'note_on channel=0 note=58 velocity=0 time=0.518161875'\n",
      "b'note_on channel=0 note=58 velocity=34 time=0'\n",
      "b'control_change channel=0 control=64 value=0 time=0.12019218749999999'\n",
      "b'note_on channel=0 note=70 velocity=0 time=0.13621781249999998'\n",
      "b'note_on channel=0 note=67 velocity=0 time=0'\n",
      "b'note_on channel=0 note=68 velocity=51 time=0'\n",
      "b'note_on channel=0 note=72 velocity=51 time=0.0040064062499999996'\n",
      "b'note_on channel=0 note=58 velocity=0 time=0'\n",
      "b'note_on channel=0 note=51 velocity=0 time=0'\n",
      "b'note_on channel=0 note=65 velocity=37 time=0.0040064062499999996'\n",
      "b'note_on channel=0 note=51 velocity=32 time=0'\n",
      "b'control_change channel=0 control=64 value=127 time=0.021367499999999998'\n",
      "b'note_on channel=0 note=58 velocity=35 time=0.22035234374999998'\n",
      "b'note_on channel=0 note=72 velocity=0 time=0.24973265624999996'\n",
      "b'note_on channel=0 note=74 velocity=56 time=0'\n",
      "b'note_on channel=0 note=74 velocity=0 time=0.24439078124999997'\n",
      "b'note_on channel=0 note=77 velocity=55 time=0'\n",
      "b'note_on channel=0 note=58 velocity=0 time=0'\n",
      "b'note_on channel=0 note=58 velocity=34 time=0.0040064062499999996'\n",
      "b'note_on channel=0 note=77 velocity=0 time=0.24572624999999998'\n",
      "b'note_on channel=0 note=68 velocity=0 time=0'\n",
      "b'note_on channel=0 note=68 velocity=55 time=0'\n",
      "b'note_on channel=0 note=74 velocity=55 time=0.0040064062499999996'\n",
      "b'note_on channel=0 note=58 velocity=0 time=0'\n",
      "b'note_on channel=0 note=51 velocity=0 time=0'\n",
      "b'note_on channel=0 note=65 velocity=0 time=0.0040064062499999996'\n",
      "b'note_on channel=0 note=65 velocity=37 time=0'\n",
      "b'control_change channel=0 control=64 value=0 time=0'\n",
      "b'note_on channel=0 note=51 velocity=32 time=0.0040064062499999996'\n",
      "b'control_change channel=0 control=64 value=127 time=0.10817296874999999'\n",
      "b'note_on channel=0 note=58 velocity=35 time=0.13488234375'\n",
      "b'note_on channel=0 note=74 velocity=0 time=0.25373906249999995'\n",
      "b'note_on channel=0 note=70 velocity=51 time=0'\n",
      "b'note_on channel=0 note=58 velocity=0 time=0.25373906249999995'\n",
      "b'note_on channel=0 note=58 velocity=34 time=0'\n",
      "b'note_on channel=0 note=70 velocity=0 time=0.25507453124999996'\n",
      "b'note_on channel=0 note=68 velocity=0 time=0'\n",
      "b'note_on channel=0 note=67 velocity=51 time=0'\n",
      "b'note_on channel=0 note=72 velocity=51 time=0.0040064062499999996'\n",
      "b'note_on channel=0 note=58 velocity=0 time=0'\n",
      "b'note_on channel=0 note=51 velocity=0 time=0'\n",
      "b'note_on channel=0 note=65 velocity=0 time=0.0040064062499999996'\n",
      "b'note_on channel=0 note=58 velocity=37 time=0'\n",
      "b'note_on channel=0 note=51 velocity=32 time=0'\n",
      "b'control_change channel=0 control=64 value=0 time=0.10817296874999999'\n",
      "b'control_change channel=0 control=64 value=127 time=0.11752125'\n",
      "b'note_on channel=0 note=72 velocity=0 time=0.01469015625'\n",
      "b'note_on channel=0 note=74 velocity=49 time=0'\n",
      "b'note_on channel=0 note=58 velocity=0 time=0'\n",
      "b'note_on channel=0 note=58 velocity=35 time=0.0040064062499999996'\n",
      "b'note_on channel=0 note=74 velocity=0 time=0.24439078124999997'\n",
      "b'note_on channel=0 note=79 velocity=52 time=0'\n",
      "b'note_on channel=0 note=79 velocity=0 time=0.24439078124999997'\n",
      "b'note_on channel=0 note=72 velocity=50 time=0'\n",
      "b'note_on channel=0 note=58 velocity=0 time=0'\n",
      "b'note_on channel=0 note=58 velocity=34 time=0.0040064062499999996'\n",
      "b'note_on channel=0 note=72 velocity=0 time=0.25507453124999996'\n",
      "b'note_on channel=0 note=67 velocity=0 time=0'\n",
      "b'note_on channel=0 note=67 velocity=47 time=0'\n",
      "b'note_on channel=0 note=70 velocity=47 time=0.0040064062499999996'\n",
      "b'note_on channel=0 note=58 velocity=0 time=0'\n",
      "b'note_on channel=0 note=51 velocity=0 time=0'\n",
      "b'control_change channel=0 control=64 value=0 time=0.0040064062499999996'\n",
      "b'note_on channel=0 note=51 velocity=32 time=0'\n",
      "b'note_on channel=0 note=58 velocity=37 time=0'\n",
      "b'control_change channel=0 control=64 value=127 time=0.22302328124999998'\n",
      "b'note_on channel=0 note=58 velocity=0 time=0.0293803125'\n",
      "b'note_on channel=0 note=58 velocity=35 time=0'\n",
      "b'note_on channel=0 note=58 velocity=0 time=0.5194973437499999'\n",
      "b'note_on channel=0 note=58 velocity=34 time=0'\n",
      "b'control_change channel=0 control=64 value=0 time=0.05742515624999999'\n",
      "b'note_on channel=0 note=70 velocity=0 time=0.20299124999999998'\n",
      "b'note_on channel=0 note=67 velocity=0 time=0'\n",
      "b'note_on channel=0 note=74 velocity=64 time=0'\n",
      "b'note_on channel=0 note=70 velocity=64 time=0.0040064062499999996'\n",
      "b'note_on channel=0 note=58 velocity=0 time=0'\n",
      "b'note_on channel=0 note=51 velocity=0 time=0'\n",
      "b'control_change channel=0 control=64 value=0 time=0.0040064062499999996'\n",
      "b'note_on channel=0 note=62 velocity=42 time=0'\n",
      "b'note_on channel=0 note=55 velocity=35 time=0'\n",
      "b'control_change channel=0 control=64 value=127 time=0.09615374999999998'\n",
      "b'note_on channel=0 note=62 velocity=0 time=0.15090796874999998'\n",
      "b'note_on channel=0 note=62 velocity=38 time=0'\n",
      "b'note_on channel=0 note=70 velocity=0 time=0.50614265625'\n",
      "b'note_on channel=0 note=74 velocity=0 time=0'\n",
      "b'note_on channel=0 note=67 velocity=55 time=0'\n",
      "b'note_on channel=0 note=70 velocity=55 time=0.0040064062499999996'\n",
      "b'note_on channel=0 note=62 velocity=0 time=0'\n",
      "b'note_on channel=0 note=62 velocity=36 time=0'\n",
      "b'control_change channel=0 control=64 value=0 time=0.17494640625'\n",
      "b'note_on channel=0 note=70 velocity=0 time=0.07612171875'\n",
      "b'note_on channel=0 note=67 velocity=0 time=0'\n",
      "b'note_on channel=0 note=72 velocity=51 time=0'\n",
      "b'note_on channel=0 note=69 velocity=60 time=0.0040064062499999996'\n",
      "b'note_on channel=0 note=62 velocity=0 time=0'\n",
      "b'note_on channel=0 note=55 velocity=0 time=0'\n",
      "b'control_change channel=0 control=64 value=127 time=0.0040064062499999996'\n",
      "b'note_on channel=0 note=63 velocity=40 time=0'\n",
      "b'note_on channel=0 note=55 velocity=35 time=0'\n",
      "b'note_on channel=0 note=63 velocity=0 time=0.24171984374999997'\n",
      "b'note_on channel=0 note=63 velocity=38 time=0'\n",
      "b'note_on channel=0 note=72 velocity=0 time=0.251068125'\n",
      "b'note_on channel=0 note=78 velocity=65 time=0'\n",
      "b'note_on channel=0 note=78 velocity=0 time=0.24305531249999998'\n",
      "b'note_on channel=0 note=81 velocity=60 time=0'\n",
      "b'note_on channel=0 note=63 velocity=0 time=0'\n",
      "b'note_on channel=0 note=63 velocity=37 time=0.0040064062499999996'\n",
      "b'note_on channel=0 note=81 velocity=0 time=0.24038437499999998'\n",
      "b'note_on channel=0 note=69 velocity=0 time=0'\n",
      "b'note_on channel=0 note=70 velocity=57 time=0'\n",
      "b'note_on channel=0 note=79 velocity=64 time=0.0040064062499999996'\n",
      "b'note_on channel=0 note=63 velocity=0 time=0'\n",
      "b'note_on channel=0 note=55 velocity=0 time=0'\n",
      "b'note_on channel=0 note=62 velocity=43 time=0.0040064062499999996'\n",
      "b'note_on channel=0 note=55 velocity=38 time=0'\n",
      "b'control_change channel=0 control=64 value=0 time=0.10683749999999999'\n",
      "b'control_change channel=0 control=64 value=127 time=0.11618578124999998'\n",
      "b'note_on channel=0 note=79 velocity=0 time=0.01469015625'\n",
      "b'note_on channel=0 note=74 velocity=56 time=0'\n",
      "b'note_on channel=0 note=62 velocity=0 time=0'\n",
      "b'note_on channel=0 note=62 velocity=37 time=0.0040064062499999996'\n",
      "b'note_on channel=0 note=74 velocity=0 time=0.24038437499999998'\n",
      "b'note_on channel=0 note=70 velocity=0 time=0'\n",
      "b'note_on channel=0 note=69 velocity=51 time=0'\n",
      "b'note_on channel=0 note=72 velocity=58 time=0.0040064062499999996'\n",
      "b'note_on channel=0 note=62 velocity=0 time=0'\n",
      "b'note_on channel=0 note=55 velocity=0 time=0'\n",
      "b'note_on channel=0 note=55 velocity=35 time=0.0040064062499999996'\n",
      "b'note_on channel=0 note=63 velocity=39 time=0'\n"
     ]
    },
    {
     "name": "stdout",
     "output_type": "stream",
     "text": [
      "b'note_on channel=0 note=72 velocity=0 time=0.23637796874999997'\n",
      "b'note_on channel=0 note=74 velocity=53 time=0'\n",
      "b'note_on channel=0 note=63 velocity=0 time=0'\n",
      "b'note_on channel=0 note=63 velocity=35 time=0.0040064062499999996'\n",
      "b'note_on channel=0 note=74 velocity=0 time=0.25240359375'\n",
      "b'note_on channel=0 note=69 velocity=0 time=0'\n",
      "b'note_on channel=0 note=67 velocity=47 time=0'\n",
      "b'note_on channel=0 note=70 velocity=47 time=0.0040064062499999996'\n",
      "b'note_on channel=0 note=63 velocity=0 time=0'\n",
      "b'note_on channel=0 note=55 velocity=0 time=0'\n",
      "b'control_change channel=0 control=64 value=0 time=0.0040064062499999996'\n",
      "b'note_on channel=0 note=55 velocity=31 time=0'\n",
      "b'note_on channel=0 note=62 velocity=36 time=0'\n",
      "b'control_change channel=0 control=64 value=127 time=0.22035234374999998'\n",
      "b'note_on channel=0 note=62 velocity=0 time=0.028044843749999996'\n",
      "b'note_on channel=0 note=62 velocity=34 time=0'\n",
      "b'note_on channel=0 note=62 velocity=0 time=0.5128199999999999'\n",
      "b'note_on channel=0 note=62 velocity=33 time=0'\n",
      "b'control_change channel=0 control=64 value=0 time=0.05742515624999999'\n",
      "b'note_on channel=0 note=70 velocity=0 time=0.19898484374999997'\n",
      "b'note_on channel=0 note=67 velocity=0 time=0'\n",
      "b'note_on channel=0 note=70 velocity=51 time=0'\n",
      "b'note_on channel=0 note=77 velocity=60 time=0.0040064062499999996'\n",
      "b'note_on channel=0 note=62 velocity=0 time=0'\n",
      "b'note_on channel=0 note=55 velocity=0 time=0'\n",
      "b'control_change channel=0 control=64 value=127 time=0.0040064062499999996'\n",
      "b'note_on channel=0 note=53 velocity=42 time=0'\n",
      "b'note_on channel=0 note=62 velocity=60 time=0'\n",
      "b'note_on channel=0 note=53 velocity=0 time=0.24038437499999998'\n",
      "b'note_on channel=0 note=53 velocity=42 time=0'\n",
      "b'note_on channel=0 note=77 velocity=0 time=0.5074781249999999'\n",
      "b'note_on channel=0 note=70 velocity=0 time=0'\n",
      "b'note_on channel=0 note=69 velocity=49 time=0'\n",
      "b'note_on channel=0 note=79 velocity=58 time=0.0040064062499999996'\n",
      "b'note_on channel=0 note=62 velocity=0 time=0'\n",
      "b'note_on channel=0 note=63 velocity=47 time=0'\n",
      "b'note_on channel=0 note=79 velocity=0 time=0.24572624999999998'\n",
      "b'note_on channel=0 note=75 velocity=57 time=0'\n",
      "b'note_on channel=0 note=63 velocity=0 time=0'\n",
      "b'control_change channel=0 control=64 value=0 time=0.0040064062499999996'\n",
      "b'note_on channel=0 note=60 velocity=48 time=0'\n",
      "b'control_change channel=0 control=64 value=127 time=0.0774571875'\n",
      "b'note_on channel=0 note=75 velocity=0 time=0.16559812499999998'\n",
      "b'note_on channel=0 note=77 velocity=60 time=0'\n",
      "b'note_on channel=0 note=60 velocity=0 time=0'\n",
      "b'note_on channel=0 note=62 velocity=49 time=0.0040064062499999996'\n",
      "b'note_on channel=0 note=77 velocity=0 time=0.24439078124999997'\n",
      "b'note_on channel=0 note=79 velocity=64 time=0'\n",
      "b'note_on channel=0 note=62 velocity=0 time=0'\n",
      "b'note_on channel=0 note=63 velocity=50 time=0.0040064062499999996'\n",
      "b'note_on channel=0 note=79 velocity=0 time=0.24839718749999998'\n",
      "b'note_on channel=0 note=81 velocity=61 time=0'\n",
      "b'note_on channel=0 note=63 velocity=0 time=0'\n",
      "b'note_on channel=0 note=65 velocity=50 time=0.0040064062499999996'\n",
      "b'note_on channel=0 note=81 velocity=0 time=0.24973265624999996'\n",
      "b'note_on channel=0 note=69 velocity=0 time=0'\n",
      "b'note_on channel=0 note=70 velocity=58 time=0'\n",
      "b'note_on channel=0 note=77 velocity=69 time=0.0040064062499999996'\n",
      "b'note_on channel=0 note=65 velocity=0 time=0'\n",
      "b'note_on channel=0 note=53 velocity=0 time=0'\n",
      "b'control_change channel=0 control=64 value=0 time=0.0040064062499999996'\n",
      "b'note_on channel=0 note=62 velocity=56 time=0'\n",
      "b'control_change channel=0 control=64 value=127 time=0.08814093749999999'\n",
      "b'note_on channel=0 note=77 velocity=0 time=0.1575853125'\n",
      "b'note_on channel=0 note=70 velocity=0 time=0'\n",
      "b'note_on channel=0 note=68 velocity=48 time=0'\n",
      "b'note_on channel=0 note=74 velocity=57 time=0.0040064062499999996'\n",
      "b'note_on channel=0 note=62 velocity=0 time=0'\n",
      "b'note_on channel=0 note=59 velocity=49 time=0'\n",
      "b'control_change channel=0 control=64 value=0 time=0.22702968749999997'\n",
      "b'note_on channel=0 note=74 velocity=0 time=0.025373906249999998'\n",
      "b'note_on channel=0 note=68 velocity=0 time=0'\n",
      "b'note_on channel=0 note=69 velocity=52 time=0'\n",
      "b'note_on channel=0 note=75 velocity=61 time=0.0040064062499999996'\n",
      "b'note_on channel=0 note=59 velocity=0 time=0'\n",
      "b'note_on channel=0 note=60 velocity=52 time=0'\n",
      "b'control_change channel=0 control=64 value=127 time=0.05608968749999999'\n",
      "b'note_on channel=0 note=75 velocity=0 time=0.19364296874999998'\n",
      "b'note_on channel=0 note=69 velocity=0 time=0'\n",
      "b'note_on channel=0 note=65 velocity=46 time=0'\n",
      "b'note_on channel=0 note=73 velocity=54 time=0.0040064062499999996'\n",
      "b'note_on channel=0 note=60 velocity=0 time=0'\n",
      "b'note_on channel=0 note=57 velocity=48 time=0'\n",
      "b'note_on channel=0 note=73 velocity=0 time=0.25373906249999995'\n",
      "b'note_on channel=0 note=74 velocity=59 time=0'\n",
      "b'note_on channel=0 note=57 velocity=0 time=0'\n",
      "b'control_change channel=0 control=64 value=0 time=0.0040064062499999996'\n",
      "b'note_on channel=0 note=58 velocity=51 time=0'\n",
      "b'control_change channel=0 control=64 value=127 time=0.032051249999999996'\n",
      "b'note_on channel=0 note=74 velocity=0 time=0.22035234374999998'\n",
      "b'note_on channel=0 note=68 velocity=38 time=0'\n",
      "b'note_on channel=0 note=72 velocity=52 time=0'\n",
      "b'note_on channel=0 note=63 velocity=39 time=0.0040064062499999996'\n",
      "b'note_on channel=0 note=72 velocity=0 time=0.26041640624999995'\n",
      "b'note_on channel=0 note=71 velocity=46 time=0'\n",
      "b'note_on channel=0 note=63 velocity=0 time=0'\n",
      "b'note_on channel=0 note=62 velocity=36 time=0.0040064062499999996'\n",
      "b'note_on channel=0 note=71 velocity=0 time=0.2590809375'\n",
      "b'note_on channel=0 note=68 velocity=0 time=0'\n",
      "b'note_on channel=0 note=70 velocity=43 time=0'\n",
      "b'control_change channel=0 control=64 value=0 time=0.10416656249999999'\n",
      "b'note_on channel=0 note=70 velocity=0 time=0.17093999999999998'\n",
      "b'note_on channel=0 note=65 velocity=0 time=0'\n",
      "b'note_on channel=0 note=79 velocity=52 time=0'\n",
      "b'note_on channel=0 note=75 velocity=52 time=0.0040064062499999996'\n",
      "b'note_on channel=0 note=62 velocity=0 time=0'\n",
      "b'note_on channel=0 note=58 velocity=0 time=0'\n",
      "b'control_change channel=0 control=64 value=0 time=0.0040064062499999996'\n",
      "b'note_on channel=0 note=58 velocity=38 time=0'\n",
      "b'note_on channel=0 note=51 velocity=32 time=0'\n",
      "b'control_change channel=0 control=64 value=127 time=0.09615374999999998'\n",
      "b'note_on channel=0 note=58 velocity=0 time=0.15090796874999998'\n",
      "b'note_on channel=0 note=58 velocity=35 time=0'\n",
      "b'note_on channel=0 note=75 velocity=0 time=0.5048071875'\n",
      "b'note_on channel=0 note=79 velocity=0 time=0'\n",
      "b'note_on channel=0 note=74 velocity=50 time=0'\n",
      "b'note_on channel=0 note=77 velocity=50 time=0.0040064062499999996'\n",
      "b'note_on channel=0 note=58 velocity=0 time=0'\n",
      "b'note_on channel=0 note=58 velocity=33 time=0'\n",
      "b'note_on channel=0 note=77 velocity=0 time=0.25507453124999996'\n",
      "b'note_on channel=0 note=74 velocity=0 time=0'\n",
      "b'note_on channel=0 note=80 velocity=52 time=0'\n",
      "b'note_on channel=0 note=77 velocity=52 time=0.0040064062499999996'\n",
      "b'note_on channel=0 note=58 velocity=0 time=0'\n",
      "b'note_on channel=0 note=51 velocity=0 time=0'\n",
      "b'note_on channel=0 note=58 velocity=37 time=0.0040064062499999996'\n",
      "b'note_on channel=0 note=51 velocity=32 time=0'\n",
      "b'note_on channel=0 note=58 velocity=0 time=0.24706171874999996'\n",
      "b'note_on channel=0 note=58 velocity=35 time=0'\n",
      "b'note_on channel=0 note=77 velocity=0 time=0.25507453124999996'\n",
      "b'note_on channel=0 note=80 velocity=0 time=0'\n",
      "b'note_on channel=0 note=74 velocity=52 time=0'\n",
      "b'note_on channel=0 note=77 velocity=52 time=0.0040064062499999996'\n",
      "b'note_on channel=0 note=77 velocity=0 time=0.24572624999999998'\n",
      "b'note_on channel=0 note=74 velocity=0 time=0'\n",
      "b'note_on channel=0 note=75 velocity=50 time=0'\n",
      "b'note_on channel=0 note=79 velocity=50 time=0.0040064062499999996'\n",
      "b'note_on channel=0 note=58 velocity=0 time=0'\n",
      "b'note_on channel=0 note=58 velocity=34 time=0'\n",
      "b'control_change channel=0 control=64 value=0 time=0.11351484374999998'\n",
      "b'note_on channel=0 note=79 velocity=0 time=0.13221140625'\n",
      "b'note_on channel=0 note=75 velocity=0 time=0'\n",
      "b'note_on channel=0 note=72 velocity=52 time=0'\n",
      "b'note_on channel=0 note=75 velocity=52 time=0.0040064062499999996'\n",
      "b'note_on channel=0 note=58 velocity=0 time=0'\n",
      "b'note_on channel=0 note=51 velocity=0 time=0'\n",
      "b'note_on channel=0 note=58 velocity=38 time=0.0040064062499999996'\n",
      "b'note_on channel=0 note=51 velocity=32 time=0'\n",
      "b'control_change channel=0 control=64 value=127 time=0.11217937499999998'\n"
     ]
    },
    {
     "name": "stdout",
     "output_type": "stream",
     "text": [
      "b'note_on channel=0 note=58 velocity=0 time=0.13488234375'\n",
      "b'note_on channel=0 note=58 velocity=35 time=0'\n",
      "b'note_on channel=0 note=75 velocity=0 time=0.25373906249999995'\n",
      "b'note_on channel=0 note=72 velocity=0 time=0'\n",
      "b'note_on channel=0 note=68 velocity=49 time=0'\n",
      "b'note_on channel=0 note=72 velocity=49 time=0.0040064062499999996'\n",
      "b'note_on channel=0 note=58 velocity=0 time=0.25507453124999996'\n",
      "b'note_on channel=0 note=58 velocity=33 time=0'\n",
      "b'note_on channel=0 note=72 velocity=0 time=0.26041640624999995'\n",
      "b'note_on channel=0 note=68 velocity=0 time=0'\n",
      "b'note_on channel=0 note=67 velocity=47 time=0'\n",
      "b'note_on channel=0 note=70 velocity=47 time=0.0040064062499999996'\n",
      "b'note_on channel=0 note=58 velocity=0 time=0'\n",
      "b'note_on channel=0 note=51 velocity=0 time=0'\n",
      "b'control_change channel=0 control=64 value=0 time=0.0040064062499999996'\n",
      "b'note_on channel=0 note=58 velocity=37 time=0'\n",
      "b'note_on channel=0 note=51 velocity=32 time=0'\n",
      "b'control_change channel=0 control=64 value=127 time=0.0988246875'\n",
      "b'note_on channel=0 note=58 velocity=0 time=0.1522434375'\n",
      "b'note_on channel=0 note=58 velocity=35 time=0'\n",
      "b'note_on channel=0 note=58 velocity=0 time=0.518161875'\n",
      "b'note_on channel=0 note=58 velocity=34 time=0'\n",
      "b'control_change channel=0 control=64 value=0 time=0.12152765624999999'\n",
      "b'note_on channel=0 note=70 velocity=0 time=0.13621781249999998'\n",
      "b'note_on channel=0 note=67 velocity=0 time=0'\n",
      "b'note_on channel=0 note=68 velocity=51 time=0'\n",
      "b'note_on channel=0 note=72 velocity=51 time=0.0040064062499999996'\n",
      "b'note_on channel=0 note=58 velocity=0 time=0'\n",
      "b'note_on channel=0 note=51 velocity=0 time=0'\n",
      "b'note_on channel=0 note=65 velocity=37 time=0.0040064062499999996'\n",
      "b'note_on channel=0 note=51 velocity=32 time=0'\n",
      "b'control_change channel=0 control=64 value=127 time=0.02003203125'\n",
      "b'note_on channel=0 note=58 velocity=35 time=0.22168781249999997'\n",
      "b'note_on channel=0 note=72 velocity=0 time=0.24973265624999996'\n",
      "b'note_on channel=0 note=74 velocity=56 time=0'\n",
      "b'note_on channel=0 note=74 velocity=0 time=0.24439078124999997'\n",
      "b'note_on channel=0 note=77 velocity=55 time=0'\n",
      "b'note_on channel=0 note=58 velocity=0 time=0'\n",
      "b'note_on channel=0 note=58 velocity=34 time=0.0040064062499999996'\n",
      "b'note_on channel=0 note=77 velocity=0 time=0.24572624999999998'\n",
      "b'note_on channel=0 note=68 velocity=0 time=0'\n",
      "b'note_on channel=0 note=68 velocity=55 time=0'\n",
      "b'note_on channel=0 note=74 velocity=55 time=0.0040064062499999996'\n",
      "b'note_on channel=0 note=58 velocity=0 time=0'\n",
      "b'note_on channel=0 note=51 velocity=0 time=0'\n",
      "b'note_on channel=0 note=65 velocity=0 time=0.0040064062499999996'\n",
      "b'note_on channel=0 note=65 velocity=37 time=0'\n",
      "b'control_change channel=0 control=64 value=0 time=0'\n",
      "b'note_on channel=0 note=51 velocity=32 time=0.0040064062499999996'\n",
      "b'control_change channel=0 control=64 value=127 time=0.10683749999999999'\n",
      "b'note_on channel=0 note=58 velocity=35 time=0.13488234375'\n",
      "b'note_on channel=0 note=74 velocity=0 time=0.25373906249999995'\n",
      "b'note_on channel=0 note=70 velocity=51 time=0'\n",
      "b'note_on channel=0 note=58 velocity=0 time=0.25373906249999995'\n",
      "b'note_on channel=0 note=58 velocity=34 time=0'\n",
      "b'note_on channel=0 note=70 velocity=0 time=0.25507453124999996'\n",
      "b'note_on channel=0 note=68 velocity=0 time=0'\n",
      "b'note_on channel=0 note=67 velocity=51 time=0'\n",
      "b'note_on channel=0 note=72 velocity=51 time=0.0040064062499999996'\n",
      "b'note_on channel=0 note=58 velocity=0 time=0'\n",
      "b'note_on channel=0 note=51 velocity=0 time=0'\n",
      "b'note_on channel=0 note=65 velocity=0 time=0.0040064062499999996'\n",
      "b'note_on channel=0 note=58 velocity=37 time=0'\n",
      "b'note_on channel=0 note=51 velocity=32 time=0'\n",
      "b'control_change channel=0 control=64 value=0 time=0.10817296874999999'\n",
      "b'control_change channel=0 control=64 value=127 time=0.11752125'\n",
      "b'note_on channel=0 note=72 velocity=0 time=0.01469015625'\n",
      "b'note_on channel=0 note=74 velocity=49 time=0'\n",
      "b'note_on channel=0 note=58 velocity=0 time=0'\n",
      "b'note_on channel=0 note=58 velocity=35 time=0.0040064062499999996'\n",
      "b'note_on channel=0 note=74 velocity=0 time=0.24439078124999997'\n",
      "b'note_on channel=0 note=79 velocity=52 time=0'\n",
      "b'note_on channel=0 note=79 velocity=0 time=0.24439078124999997'\n",
      "b'note_on channel=0 note=72 velocity=50 time=0'\n",
      "b'note_on channel=0 note=58 velocity=0 time=0'\n",
      "b'note_on channel=0 note=58 velocity=34 time=0.0040064062499999996'\n",
      "b'note_on channel=0 note=72 velocity=0 time=0.25640999999999997'\n",
      "b'note_on channel=0 note=67 velocity=0 time=0'\n",
      "b'note_on channel=0 note=67 velocity=47 time=0'\n",
      "b'note_on channel=0 note=70 velocity=47 time=0.0040064062499999996'\n",
      "b'note_on channel=0 note=58 velocity=0 time=0'\n",
      "b'note_on channel=0 note=51 velocity=0 time=0'\n",
      "b'control_change channel=0 control=64 value=0 time=0.0040064062499999996'\n",
      "b'note_on channel=0 note=51 velocity=32 time=0'\n",
      "b'note_on channel=0 note=58 velocity=37 time=0'\n",
      "b'control_change channel=0 control=64 value=127 time=0.22168781249999997'\n",
      "b'note_on channel=0 note=58 velocity=0 time=0.0293803125'\n",
      "b'note_on channel=0 note=58 velocity=35 time=0'\n",
      "b'note_on channel=0 note=58 velocity=0 time=0.5194973437499999'\n",
      "b'note_on channel=0 note=58 velocity=34 time=0'\n",
      "b'control_change channel=0 control=64 value=0 time=0.05742515624999999'\n",
      "b'note_on channel=0 note=70 velocity=0 time=0.20299124999999998'\n",
      "b'note_on channel=0 note=67 velocity=0 time=0'\n",
      "b'note_on channel=0 note=67 velocity=47 time=0'\n",
      "b'note_on channel=0 note=73 velocity=55 time=0.0040064062499999996'\n",
      "b'note_on channel=0 note=58 velocity=0 time=0'\n",
      "b'note_on channel=0 note=51 velocity=0 time=0'\n",
      "b'control_change channel=0 control=64 value=127 time=0.0040064062499999996'\n",
      "b'note_on channel=0 note=65 velocity=52 time=0'\n",
      "b'note_on channel=0 note=65 velocity=0 time=0.24038437499999998'\n",
      "b'note_on channel=0 note=51 velocity=47 time=0'\n",
      "b'note_on channel=0 note=73 velocity=0 time=0.50614265625'\n",
      "b'note_on channel=0 note=67 velocity=0 time=0'\n",
      "b'note_on channel=0 note=67 velocity=45 time=0'\n",
      "b'note_on channel=0 note=72 velocity=53 time=0.0040064062499999996'\n",
      "b'note_on channel=0 note=51 velocity=0 time=0'\n",
      "b'note_on channel=0 note=63 velocity=40 time=0'\n",
      "b'note_on channel=0 note=72 velocity=0 time=0.24439078124999997'\n",
      "b'note_on channel=0 note=67 velocity=0 time=0'\n",
      "b'note_on channel=0 note=67 velocity=47 time=0'\n",
      "b'note_on channel=0 note=72 velocity=56 time=0.0040064062499999996'\n",
      "b'note_on channel=0 note=63 velocity=0 time=0'\n",
      "b'control_change channel=0 control=64 value=0 time=0'\n",
      "b'note_on channel=0 note=63 velocity=49 time=0.0040064062499999996'\n",
      "b'control_change channel=0 control=64 value=127 time=0.034722187499999994'\n",
      "b'note_on channel=0 note=63 velocity=0 time=0.20165578124999997'\n",
      "b'note_on channel=0 note=62 velocity=42 time=0'\n",
      "b'note_on channel=0 note=62 velocity=0 time=0.24572624999999998'\n",
      "b'note_on channel=0 note=61 velocity=39 time=0'\n",
      "b'note_on channel=0 note=72 velocity=0 time=0.251068125'\n",
      "b'note_on channel=0 note=70 velocity=52 time=0'\n",
      "b'control_change channel=0 control=64 value=0 time=0.11752125'\n",
      "b'note_on channel=0 note=70 velocity=0 time=0.13354687499999998'\n",
      "b'note_on channel=0 note=67 velocity=0 time=0'\n",
      "b'note_on channel=0 note=63 velocity=45 time=0'\n",
      "b'note_on channel=0 note=67 velocity=53 time=0.0040064062499999996'\n",
      "b'note_on channel=0 note=61 velocity=0 time=0'\n",
      "b'control_change channel=0 control=64 value=127 time=0'\n",
      "b'note_on channel=0 note=59 velocity=49 time=0.0040064062499999996'\n",
      "b'note_on channel=0 note=67 velocity=0 time=0.23637796874999997'\n",
      "b'note_on channel=0 note=68 velocity=55 time=0'\n",
      "b'note_on channel=0 note=59 velocity=0 time=0'\n",
      "b'note_on channel=0 note=60 velocity=46 time=0.0040064062499999996'\n",
      "b'note_on channel=0 note=68 velocity=0 time=0.24038437499999998'\n",
      "b'note_on channel=0 note=63 velocity=0 time=0'\n",
      "b'note_on channel=0 note=71 velocity=56 time=0'\n",
      "b'note_on channel=0 note=60 velocity=0 time=0.0040064062499999996'\n",
      "b'note_on channel=0 note=55 velocity=52 time=0'\n",
      "b'note_on channel=0 note=71 velocity=0 time=0.24572624999999998'\n",
      "b'note_on channel=0 note=72 velocity=57 time=0'\n",
      "b'note_on channel=0 note=55 velocity=0 time=0'\n",
      "b'note_on channel=0 note=56 velocity=47 time=0.0040064062499999996'\n",
      "b'note_on channel=0 note=72 velocity=0 time=0.24439078124999997'\n",
      "b'note_on channel=0 note=74 velocity=59 time=0'\n",
      "b'note_on channel=0 note=56 velocity=0 time=0'\n",
      "b'control_change channel=0 control=64 value=0 time=0.0040064062499999996'\n",
      "b'note_on channel=0 note=59 velocity=51 time=0'\n",
      "b'control_change channel=0 control=64 value=127 time=0.14155968749999998'\n"
     ]
    },
    {
     "name": "stdout",
     "output_type": "stream",
     "text": [
      "b'note_on channel=0 note=74 velocity=0 time=0.10950843749999999'\n",
      "b'note_on channel=0 note=75 velocity=56 time=0'\n",
      "b'note_on channel=0 note=59 velocity=0 time=0'\n",
      "b'note_on channel=0 note=60 velocity=48 time=0.0040064062499999996'\n",
      "b'note_on channel=0 note=75 velocity=0 time=0.25507453124999996'\n",
      "b'note_on channel=0 note=72 velocity=47 time=0'\n",
      "b'note_on channel=0 note=75 velocity=47 time=0'\n",
      "b'note_on channel=0 note=80 velocity=61 time=0.0040064062499999996'\n",
      "b'note_on channel=0 note=60 velocity=0 time=0'\n",
      "b'note_on channel=0 note=53 velocity=45 time=0'\n",
      "b'note_on channel=0 note=80 velocity=0 time=0.25640999999999997'\n",
      "b'note_on channel=0 note=75 velocity=0 time=0'\n",
      "b'note_on channel=0 note=72 velocity=0 time=0'\n",
      "b'note_on channel=0 note=63 velocity=38 time=0.0040064062499999996'\n",
      "b'note_on channel=0 note=68 velocity=38 time=0'\n",
      "b'note_on channel=0 note=72 velocity=55 time=0'\n",
      "b'control_change channel=0 control=64 value=0 time=0.18028828125'\n",
      "b'note_on channel=0 note=72 velocity=0 time=0.07478625'\n",
      "b'note_on channel=0 note=68 velocity=0 time=0'\n",
      "b'note_on channel=0 note=63 velocity=0 time=0'\n",
      "b'note_on channel=0 note=63 velocity=44 time=0.0040064062499999996'\n",
      "b'note_on channel=0 note=72 velocity=52 time=0'\n",
      "b'note_on channel=0 note=68 velocity=44 time=0'\n",
      "b'note_on channel=0 note=53 velocity=0 time=0.0040064062499999996'\n",
      "b'control_change channel=0 control=64 value=0 time=0'\n",
      "b'note_on channel=0 note=46 velocity=44 time=0'\n",
      "b'control_change channel=0 control=64 value=127 time=0.0988246875'\n",
      "b'note_on channel=0 note=46 velocity=0 time=0.15090796874999998'\n",
      "b'note_on channel=0 note=58 velocity=36 time=0'\n",
      "b'note_on channel=0 note=68 velocity=0 time=0.5088135937499999'\n",
      "b'note_on channel=0 note=72 velocity=0 time=0'\n",
      "b'note_on channel=0 note=63 velocity=0 time=0'\n",
      "b'note_on channel=0 note=65 velocity=42 time=0.0040064062499999996'\n",
      "b'note_on channel=0 note=68 velocity=42 time=0'\n",
      "b'note_on channel=0 note=74 velocity=50 time=0'\n",
      "b'note_on channel=0 note=58 velocity=0 time=0.0040064062499999996'\n",
      "b'note_on channel=0 note=58 velocity=36 time=0'\n",
      "b'note_on channel=0 note=74 velocity=0 time=0.25507453124999996'\n",
      "b'note_on channel=0 note=68 velocity=0 time=0'\n",
      "b'note_on channel=0 note=65 velocity=0 time=0'\n",
      "b'note_on channel=0 note=63 velocity=44 time=0.0040064062499999996'\n",
      "b'note_on channel=0 note=72 velocity=52 time=0'\n",
      "b'note_on channel=0 note=68 velocity=44 time=0'\n",
      "b'note_on channel=0 note=58 velocity=0 time=0.25240359375'\n",
      "b'note_on channel=0 note=58 velocity=35 time=0'\n",
      "b'note_on channel=0 note=68 velocity=0 time=0.25774546875'\n",
      "b'note_on channel=0 note=72 velocity=0 time=0'\n",
      "b'note_on channel=0 note=63 velocity=0 time=0'\n",
      "b'note_on channel=0 note=62 velocity=40 time=0.0040064062499999996'\n",
      "b'note_on channel=0 note=68 velocity=40 time=0'\n",
      "b'note_on channel=0 note=70 velocity=49 time=0'\n",
      "b'note_on channel=0 note=58 velocity=0 time=0.24572624999999998'\n",
      "b'note_on channel=0 note=58 velocity=34 time=0'\n",
      "b'control_change channel=0 control=64 value=0 time=0.11752125'\n",
      "b'note_on channel=0 note=70 velocity=0 time=0.13221140625'\n",
      "b'note_on channel=0 note=68 velocity=0 time=0'\n",
      "b'note_on channel=0 note=62 velocity=0 time=0'\n",
      "b'note_on channel=0 note=67 velocity=52 time=0.0040064062499999996'\n",
      "b'note_on channel=0 note=63 velocity=44 time=0'\n",
      "b'note_on channel=0 note=58 velocity=0 time=0'\n",
      "b'control_change channel=0 control=64 value=0 time=0.0040064062499999996'\n",
      "b'note_on channel=0 note=46 velocity=44 time=0'\n",
      "b'control_change channel=0 control=64 value=127 time=0.0988246875'\n",
      "b'note_on channel=0 note=46 velocity=0 time=0.15090796874999998'\n",
      "b'note_on channel=0 note=58 velocity=48 time=0'\n",
      "b'note_on channel=0 note=63 velocity=0 time=0.5088135937499999'\n",
      "b'note_on channel=0 note=67 velocity=0 time=0'\n",
      "b'note_on channel=0 note=63 velocity=42 time=0'\n",
      "b'note_on channel=0 note=70 velocity=50 time=0.0040064062499999996'\n",
      "b'note_on channel=0 note=58 velocity=0 time=0'\n",
      "b'note_on channel=0 note=62 velocity=36 time=0'\n",
      "b'note_on channel=0 note=70 velocity=0 time=0.2590809375'\n",
      "b'note_on channel=0 note=63 velocity=0 time=0'\n",
      "b'note_on channel=0 note=63 velocity=44 time=0'\n",
      "b'note_on channel=0 note=68 velocity=52 time=0.0040064062499999996'\n",
      "b'note_on channel=0 note=62 velocity=0 time=0.25373906249999995'\n",
      "b'note_on channel=0 note=60 velocity=35 time=0'\n",
      "b'note_on channel=0 note=68 velocity=0 time=0.25640999999999997'\n",
      "b'note_on channel=0 note=63 velocity=0 time=0'\n",
      "b'note_on channel=0 note=63 velocity=40 time=0'\n",
      "b'note_on channel=0 note=67 velocity=49 time=0.0040064062499999996'\n",
      "b'note_on channel=0 note=60 velocity=0 time=0.24572624999999998'\n",
      "b'note_on channel=0 note=58 velocity=34 time=0'\n",
      "b'control_change channel=0 control=64 value=0 time=0.11752125'\n",
      "b'note_on channel=0 note=67 velocity=0 time=0.13221140625'\n",
      "b'note_on channel=0 note=63 velocity=0 time=0'\n",
      "b'note_on channel=0 note=60 velocity=47 time=0'\n",
      "b'note_on channel=0 note=65 velocity=47 time=0.0040064062499999996'\n",
      "b'note_on channel=0 note=58 velocity=0 time=0'\n",
      "b'note_on channel=0 note=46 velocity=33 time=0'\n",
      "b'note_on channel=0 note=56 velocity=33 time=0.0040064062499999996'\n",
      "b'control_change channel=0 control=64 value=127 time=0.006677343749999999'\n",
      "b'note_on channel=0 note=65 velocity=0 time=0.22970062499999996'\n",
      "b'note_on channel=0 note=60 velocity=0 time=0'\n",
      "b'note_on channel=0 note=63 velocity=38 time=0'\n",
      "b'note_on channel=0 note=68 velocity=38 time=0.0040064062499999996'\n",
      "b'note_on channel=0 note=56 velocity=0 time=0'\n",
      "b'note_on channel=0 note=46 velocity=0 time=0'\n",
      "b'note_on channel=0 note=60 velocity=30 time=0.0040064062499999996'\n",
      "b'note_on channel=0 note=68 velocity=0 time=0.23637796874999997'\n",
      "b'note_on channel=0 note=63 velocity=0 time=0'\n",
      "b'note_on channel=0 note=60 velocity=46 time=0'\n",
      "b'note_on channel=0 note=65 velocity=46 time=0.0040064062499999996'\n",
      "b'note_on channel=0 note=60 velocity=0 time=0'\n",
      "b'note_on channel=0 note=56 velocity=32 time=0'\n",
      "b'note_on channel=0 note=65 velocity=0 time=0.24171984374999997'\n",
      "b'note_on channel=0 note=60 velocity=0 time=0'\n",
      "b'note_on channel=0 note=62 velocity=37 time=0'\n",
      "b'note_on channel=0 note=67 velocity=37 time=0.0040064062499999996'\n",
      "b'note_on channel=0 note=56 velocity=0 time=0'\n",
      "b'note_on channel=0 note=58 velocity=30 time=0'\n",
      "b'note_on channel=0 note=67 velocity=0 time=0.24439078124999997'\n",
      "b'note_on channel=0 note=62 velocity=0 time=0'\n",
      "b'note_on channel=0 note=60 velocity=42 time=0'\n",
      "b'note_on channel=0 note=65 velocity=42 time=0.0040064062499999996'\n",
      "b'note_on channel=0 note=58 velocity=0 time=0'\n",
      "b'control_change channel=0 control=64 value=0 time=0'\n",
      "b'note_on channel=0 note=56 velocity=31 time=0.0040064062499999996'\n",
      "b'control_change channel=0 control=64 value=127 time=0.16426265624999997'\n",
      "b'note_on channel=0 note=65 velocity=0 time=0.34321546875'\n",
      "b'note_on channel=0 note=60 velocity=0 time=0'\n",
      "b'note_on channel=0 note=62 velocity=37 time=0'\n",
      "b'note_on channel=0 note=67 velocity=37 time=0.0040064062499999996'\n",
      "b'note_on channel=0 note=70 velocity=37 time=0'\n",
      "b'note_on channel=0 note=56 velocity=0 time=0'\n",
      "b'note_on channel=0 note=46 velocity=28 time=0.0040064062499999996'\n",
      "b'note_on channel=0 note=56 velocity=28 time=0'\n",
      "b'control_change channel=0 control=64 value=0 time=0.36458296874999996'\n",
      "b'note_on channel=0 note=70 velocity=0 time=0.14289515625'\n",
      "b'note_on channel=0 note=67 velocity=0 time=0'\n",
      "b'note_on channel=0 note=62 velocity=0 time=0'\n",
      "b'note_on channel=0 note=56 velocity=0 time=0.0040064062499999996'\n",
      "b'note_on channel=0 note=46 velocity=0 time=0'\n",
      "b'note_on channel=0 note=46 velocity=32 time=0'\n",
      "b'note_on channel=0 note=39 velocity=28 time=0.0040064062499999996'\n",
      "b'control_change channel=0 control=64 value=127 time=0.21901687499999997'\n",
      "b'note_on channel=0 note=46 velocity=0 time=0.0293803125'\n",
      "b'note_on channel=0 note=46 velocity=30 time=0'\n",
      "b'note_on channel=0 note=46 velocity=0 time=0.5154909375'\n",
      "b'note_on channel=0 note=46 velocity=28 time=0'\n",
      "b'note_on channel=0 note=46 velocity=0 time=0.25774546875'\n",
      "b'note_on channel=0 note=39 velocity=0 time=0'\n",
      "b'note_on channel=0 note=46 velocity=30 time=0'\n",
      "b'note_on channel=0 note=39 velocity=27 time=0.0040064062499999996'\n",
      "b'note_on channel=0 note=46 velocity=0 time=0.25240359375'\n",
      "b'note_on channel=0 note=46 velocity=28 time=0'\n",
      "b'note_on channel=0 note=46 velocity=0 time=0.5154909375'\n",
      "b'note_on channel=0 note=46 velocity=27 time=0'\n"
     ]
    },
    {
     "name": "stdout",
     "output_type": "stream",
     "text": [
      "b'note_on channel=0 note=79 velocity=42 time=0.25774546875'\n",
      "b'note_on channel=0 note=75 velocity=42 time=0'\n",
      "b'note_on channel=0 note=46 velocity=0 time=0'\n",
      "b'note_on channel=0 note=39 velocity=0 time=0.0040064062499999996'\n",
      "b'control_change channel=0 control=64 value=0 time=0'\n",
      "b'note_on channel=0 note=46 velocity=29 time=0'\n",
      "b'note_on channel=0 note=39 velocity=25 time=0.0040064062499999996'\n",
      "b'control_change channel=0 control=64 value=127 time=0.09748921875'\n",
      "b'note_on channel=0 note=46 velocity=0 time=0.1522434375'\n",
      "b'note_on channel=0 note=46 velocity=27 time=0'\n",
      "b'note_on channel=0 note=75 velocity=0 time=0.5088135937499999'\n",
      "b'note_on channel=0 note=79 velocity=0 time=0'\n",
      "b'note_on channel=0 note=74 velocity=38 time=0'\n",
      "b'note_on channel=0 note=77 velocity=38 time=0.0040064062499999996'\n",
      "b'note_on channel=0 note=46 velocity=0 time=0'\n",
      "b'note_on channel=0 note=46 velocity=26 time=0'\n",
      "b'note_on channel=0 note=77 velocity=0 time=0.25774546875'\n",
      "b'note_on channel=0 note=74 velocity=0 time=0'\n",
      "b'note_on channel=0 note=80 velocity=39 time=0'\n",
      "b'note_on channel=0 note=77 velocity=39 time=0.0040064062499999996'\n",
      "b'note_on channel=0 note=46 velocity=0 time=0'\n",
      "b'note_on channel=0 note=39 velocity=0 time=0'\n",
      "b'note_on channel=0 note=46 velocity=28 time=0.0040064062499999996'\n",
      "b'note_on channel=0 note=39 velocity=23 time=0'\n",
      "b'note_on channel=0 note=46 velocity=0 time=0.24973265624999996'\n",
      "b'note_on channel=0 note=46 velocity=26 time=0'\n",
      "b'note_on channel=0 note=77 velocity=0 time=0.25774546875'\n",
      "b'note_on channel=0 note=80 velocity=0 time=0'\n",
      "b'note_on channel=0 note=74 velocity=38 time=0'\n",
      "b'note_on channel=0 note=77 velocity=38 time=0.0040064062499999996'\n",
      "b'note_on channel=0 note=77 velocity=0 time=0.25640999999999997'\n",
      "b'note_on channel=0 note=74 velocity=0 time=0'\n",
      "b'note_on channel=0 note=75 velocity=35 time=0'\n",
      "b'note_on channel=0 note=79 velocity=35 time=0.0040064062499999996'\n",
      "b'note_on channel=0 note=46 velocity=0 time=0'\n",
      "b'note_on channel=0 note=46 velocity=25 time=0'\n",
      "b'control_change channel=0 control=64 value=0 time=0.11885671874999999'\n",
      "b'note_on channel=0 note=79 velocity=0 time=0.13888874999999998'\n",
      "b'note_on channel=0 note=75 velocity=0 time=0'\n",
      "b'note_on channel=0 note=72 velocity=35 time=0'\n",
      "b'note_on channel=0 note=75 velocity=35 time=0.0040064062499999996'\n",
      "b'note_on channel=0 note=46 velocity=0 time=0'\n",
      "b'note_on channel=0 note=39 velocity=0 time=0'\n",
      "b'note_on channel=0 note=46 velocity=26 time=0.0040064062499999996'\n",
      "b'note_on channel=0 note=39 velocity=21 time=0'\n",
      "b'control_change channel=0 control=64 value=127 time=0.11618578124999998'\n",
      "b'note_on channel=0 note=46 velocity=0 time=0.14022421875'\n",
      "b'note_on channel=0 note=46 velocity=25 time=0'\n",
      "b'note_on channel=0 note=75 velocity=0 time=0.26575828124999995'\n",
      "b'note_on channel=0 note=72 velocity=0 time=0'\n",
      "b'note_on channel=0 note=68 velocity=31 time=0'\n",
      "b'note_on channel=0 note=72 velocity=31 time=0.0040064062499999996'\n",
      "b'note_on channel=0 note=46 velocity=0 time=0.2697646875'\n",
      "b'note_on channel=0 note=46 velocity=21 time=0'\n",
      "b'note_on channel=0 note=72 velocity=0 time=0.2751065625'\n",
      "b'note_on channel=0 note=68 velocity=0 time=0'\n",
      "b'note_on channel=0 note=67 velocity=29 time=0'\n",
      "b'note_on channel=0 note=70 velocity=29 time=0.0040064062499999996'\n",
      "b'note_on channel=0 note=46 velocity=0 time=0'\n",
      "b'note_on channel=0 note=39 velocity=0 time=0'\n",
      "b'control_change channel=0 control=64 value=0 time=0.0040064062499999996'\n",
      "b'note_on channel=0 note=46 velocity=25 time=0'\n",
      "b'note_on channel=0 note=39 velocity=19 time=0'\n",
      "b'control_change channel=0 control=64 value=127 time=0.10416656249999999'\n",
      "b'note_on channel=0 note=46 velocity=0 time=0.16159171874999997'\n",
      "b'note_on channel=0 note=46 velocity=21 time=0'\n",
      "b'note_on channel=0 note=46 velocity=0 time=0.5315165624999999'\n",
      "b'note_on channel=0 note=46 velocity=19 time=0'\n",
      "b'control_change channel=0 control=64 value=0 time=0.12019218749999999'\n",
      "b'note_on channel=0 note=70 velocity=0 time=0.13621781249999998'\n",
      "b'note_on channel=0 note=67 velocity=0 time=0'\n",
      "b'note_on channel=0 note=54 velocity=25 time=0'\n",
      "b'note_on channel=0 note=57 velocity=25 time=0.0040064062499999996'\n",
      "b'note_on channel=0 note=63 velocity=29 time=0'\n",
      "b'note_on channel=0 note=46 velocity=0 time=0'\n",
      "b'note_on channel=0 note=39 velocity=0 time=0.0040064062499999996'\n",
      "b'note_on channel=0 note=47 velocity=23 time=0'\n",
      "b'note_on channel=0 note=39 velocity=18 time=0'\n",
      "b'control_change channel=0 control=64 value=127 time=0.017361093749999997'\n",
      "b'note_on channel=0 note=47 velocity=0 time=0.23771343749999999'\n",
      "b'note_on channel=0 note=47 velocity=19 time=0'\n",
      "b'note_on channel=0 note=47 velocity=0 time=0.5235037499999999'\n",
      "b'note_on channel=0 note=47 velocity=17 time=0'\n",
      "b'note_on channel=0 note=47 velocity=0 time=0.26175187499999997'\n",
      "b'note_on channel=0 note=39 velocity=0 time=0'\n",
      "b'note_on channel=0 note=47 velocity=19 time=0'\n",
      "b'note_on channel=0 note=39 velocity=16 time=0.0040064062499999996'\n",
      "b'note_on channel=0 note=47 velocity=0 time=0.25774546875'\n",
      "b'note_on channel=0 note=47 velocity=17 time=0'\n",
      "b'note_on channel=0 note=47 velocity=0 time=0.52483921875'\n",
      "b'note_on channel=0 note=47 velocity=15 time=0'\n",
      "b'control_change channel=0 control=64 value=0 time=0.025373906249999998'\n",
      "b'note_on channel=0 note=63 velocity=0 time=0.23637796874999997'\n",
      "b'note_on channel=0 note=57 velocity=0 time=0'\n",
      "b'note_on channel=0 note=54 velocity=0 time=0'\n",
      "b'note_on channel=0 note=87 velocity=39 time=0.0040064062499999996'\n",
      "b'note_on channel=0 note=79 velocity=39 time=0'\n",
      "b'note_on channel=0 note=47 velocity=0 time=0'\n",
      "b'note_on channel=0 note=39 velocity=0 time=0.0040064062499999996'\n",
      "b'note_on channel=0 note=39 velocity=33 time=0'\n",
      "b'control_change channel=0 control=64 value=127 time=0.0040064062499999996'\n",
      "b'note_on channel=0 note=39 velocity=0 time=0.25240359375'\n",
      "b'note_on channel=0 note=46 velocity=29 time=0'\n",
      "b'note_on channel=0 note=46 velocity=0 time=0.26575828124999995'\n",
      "b'note_on channel=0 note=51 velocity=34 time=0'\n",
      "b'note_on channel=0 note=51 velocity=0 time=0.26709374999999996'\n",
      "b'note_on channel=0 note=55 velocity=31 time=0'\n",
      "b'note_on channel=0 note=55 velocity=0 time=0.2697646875'\n",
      "b'note_on channel=0 note=58 velocity=36 time=0'\n",
      "b'note_on channel=0 note=79 velocity=0 time=0.5422003124999999'\n",
      "b'note_on channel=0 note=87 velocity=0 time=0'\n",
      "b'note_on channel=0 note=89 velocity=34 time=0'\n",
      "b'note_on channel=0 note=89 velocity=0 time=0.09081187499999999'\n",
      "b'note_on channel=0 note=91 velocity=33 time=0'\n",
      "b'note_on channel=0 note=91 velocity=0 time=0.09081187499999999'\n",
      "b'note_on channel=0 note=89 velocity=33 time=0'\n",
      "b'note_on channel=0 note=89 velocity=0 time=0.09081187499999999'\n",
      "b'note_on channel=0 note=87 velocity=32 time=0'\n",
      "b'note_on channel=0 note=87 velocity=0 time=0.09081187499999999'\n",
      "b'note_on channel=0 note=84 velocity=31 time=0'\n",
      "b'note_on channel=0 note=84 velocity=0 time=0.08947640624999999'\n",
      "b'note_on channel=0 note=82 velocity=31 time=0'\n",
      "b'control_change channel=0 control=64 value=0 time=0.06276703125'\n",
      "b'note_on channel=0 note=82 velocity=0 time=0.028044843749999996'\n",
      "b'note_on channel=0 note=79 velocity=35 time=0'\n",
      "b'note_on channel=0 note=58 velocity=0 time=0'\n",
      "b'control_change channel=0 control=64 value=127 time=0.30181593749999996'\n",
      "b'note_on channel=0 note=79 velocity=0 time=0.7839201562499999'\n",
      "b'note_on channel=0 note=71 velocity=34 time=0'\n",
      "b'note_on channel=0 note=77 velocity=34 time=0'\n",
      "b'note_on channel=0 note=75 velocity=34 time=0.0040064062499999996'\n",
      "b'note_on channel=0 note=63 velocity=30 time=0'\n",
      "b'note_on channel=0 note=56 velocity=30 time=0'\n",
      "b'control_change channel=0 control=64 value=0 time=1.0403301562499998'\n",
      "b'note_on channel=0 note=75 velocity=0 time=0.16826906249999998'\n",
      "b'note_on channel=0 note=77 velocity=0 time=0'\n",
      "b'note_on channel=0 note=71 velocity=0 time=0'\n",
      "b'note_on channel=0 note=99 velocity=37 time=0.0040064062499999996'\n",
      "b'note_on channel=0 note=94 velocity=37 time=0'\n",
      "b'note_on channel=0 note=91 velocity=37 time=0'\n",
      "b'note_on channel=0 note=87 velocity=37 time=0.0040064062499999996'\n",
      "b'note_on channel=0 note=56 velocity=0 time=0'\n",
      "b'note_on channel=0 note=63 velocity=0 time=0'\n",
      "b'note_on channel=0 note=27 velocity=23 time=0.0040064062499999996'\n",
      "b'note_on channel=0 note=39 velocity=23 time=0'\n",
      "b'control_change channel=0 control=64 value=127 time=0.39129234374999994'\n"
     ]
    },
    {
     "name": "stdout",
     "output_type": "stream",
     "text": [
      "b'control_change channel=0 control=64 value=0 time=1.5491437499999998'\n",
      "b'note_on channel=0 note=87 velocity=0 time=0.47142046874999993'\n",
      "b'note_on channel=0 note=99 velocity=0 time=0'\n",
      "b'note_on channel=0 note=94 velocity=0 time=0'\n",
      "b'note_on channel=0 note=91 velocity=0 time=0.0040064062499999996'\n",
      "b'note_on channel=0 note=39 velocity=0 time=0'\n",
      "b'note_on channel=0 note=27 velocity=0 time=0'\n",
      "b'<meta message end_of_track time=2.0005321874999997>'\n"
     ]
    }
   ],
   "source": [
    "# run this block to play a midi file. will also print out all the messages\n",
    "\n",
    "filename = './midies/001-Albeniz Espana Op-165 Capricho Catalan.mid' # change to your midi file path\n",
    "playfile(filename)"
   ]
  },
  {
   "cell_type": "code",
   "execution_count": 6,
   "metadata": {},
   "outputs": [],
   "source": [
    "# convert textual notes into absolute pitch\n",
    "def note2pitch(name):\n",
    "    if name == 'c' : return 63        \n",
    "    if name == 'd' : return 65\n",
    "    if name == 'e' : return 67\n",
    "    if name == 'f' : return 68\n",
    "    if name == 'g' : return 70\n",
    "    if name == 'a' : return 72\n",
    "    if name == 'b' : return 74\n",
    "    raise NotImplementedError('note name not found')\n",
    "        \n",
    "def play_my_own():\n",
    "    import time,random\n",
    "    outport = get_outport()\n",
    "    \n",
    "    # simple melody\n",
    "    mynotes = 'ccggaaggffeeddcc'+'ggffeeddggffeedd'+'ccggaaggffeeddcc' # change this\n",
    "    \n",
    "    # convert the notes to messages\n",
    "    for note in mynotes:\n",
    "        pitch = note2pitch(note)\n",
    "        \n",
    "        outport.send(mido.Message('note_on', note=pitch, velocity=100))\n",
    "        \n",
    "        time.sleep(0.1)\n",
    "        \n",
    "        outport.send(mido.Message('note_on', note=pitch, velocity=0))\n",
    "        \n",
    "        time.sleep(0.1)\n",
    "        # or you can\n",
    "        # outport.send(mido.Message('note_off', note=pitch, velocity=0))\n",
    "        \n",
    "play_my_own()\n",
    "        "
   ]
  },
  {
   "cell_type": "code",
   "execution_count": null,
   "metadata": {},
   "outputs": [],
   "source": []
  }
 ],
 "metadata": {
  "kernelspec": {
   "display_name": "Python 3",
   "language": "python",
   "name": "python3"
  },
  "language_info": {
   "codemirror_mode": {
    "name": "ipython",
    "version": 3
   },
   "file_extension": ".py",
   "mimetype": "text/x-python",
   "name": "python",
   "nbconvert_exporter": "python",
   "pygments_lexer": "ipython3",
   "version": "3.5.2"
  }
 },
 "nbformat": 4,
 "nbformat_minor": 2
}
